<svg xmlns="http://www.w3.org/2000/svg" viewBox="0 0 226.8 32"><defs><style>.cls-1{fill:#232f3e;}.cls-2{fill:#fff;}</style></defs><g id="Слой_2" data-name="Слой 2"><g id="Слой_1-2" data-name="Слой 1"><rect class="cls-1" width="226.8" height="32" rx="6.06"/><path class="cls-2" d="M46.72,19.86H42.09l-.88,2.64h-2.8L43.17,9.7h2.45l4.79,12.8H47.6ZM42.8,17.72H46l-1.6-4.79Z"/><path class="cls-2" d="M53.82,13l.08,1.06a3.32,3.32,0,0,1,2.73-1.24,2.53,2.53,0,0,1,2.52,1.45A3.26,3.26,0,0,1,62,12.81a2.83,2.83,0,0,1,2.3.9,4.11,4.11,0,0,1,.76,2.71V22.5H62.52V16.43a1.81,1.81,0,0,0-.32-1.18,1.39,1.39,0,0,0-1.11-.37A1.59,1.59,0,0,0,59.5,16V22.5H57V16.44a1.8,1.8,0,0,0-.32-1.19,1.41,1.41,0,0,0-1.11-.37,1.65,1.65,0,0,0-1.56.89V22.5H51.44V13Z"/><path class="cls-2" d="M72.53,22.5a3,3,0,0,1-.26-.86,3,3,0,0,1-2.39,1,3.36,3.36,0,0,1-2.32-.81,2.6,2.6,0,0,1-.92-2,2.69,2.69,0,0,1,1.12-2.32A5.57,5.57,0,0,1,71,16.69h1.17v-.55a1.53,1.53,0,0,0-.34-1.05,1.32,1.32,0,0,0-1.07-.4,1.46,1.46,0,0,0-1,.31,1,1,0,0,0-.37.84H66.85a2.56,2.56,0,0,1,.51-1.53,3.46,3.46,0,0,1,1.44-1.1,5.37,5.37,0,0,1,2.09-.4,4.16,4.16,0,0,1,2.8.89,3.09,3.09,0,0,1,1,2.48V20.3a4.45,4.45,0,0,0,.38,2.05v.15Zm-2.1-1.77a2.19,2.19,0,0,0,1-.25,1.68,1.68,0,0,0,.7-.67V18.17h-1c-1.27,0-2,.44-2,1.32v.15a1,1,0,0,0,.33.78A1.3,1.3,0,0,0,70.43,20.73Z"/><path class="cls-2" d="M79.59,20.45h4.65V22.5h-7.9V21L80.82,15H76.48V13H84.1v1.49Z"/><path class="cls-2" d="M85.29,17.65a5.56,5.56,0,0,1,.55-2.52,3.92,3.92,0,0,1,1.56-1.71,4.56,4.56,0,0,1,2.38-.61A4.29,4.29,0,0,1,92.92,14a4.66,4.66,0,0,1,1.36,3.2l0,.65a5,5,0,0,1-1.22,3.51,4.74,4.74,0,0,1-6.56,0,5,5,0,0,1-1.23-3.58Zm2.54.18a3.57,3.57,0,0,0,.51,2.08,1.84,1.84,0,0,0,2.9,0,3.88,3.88,0,0,0,.52-2.27,3.49,3.49,0,0,0-.52-2.06,1.67,1.67,0,0,0-1.46-.73,1.65,1.65,0,0,0-1.44.73A3.92,3.92,0,0,0,87.83,17.83Z"/><path class="cls-2" d="M98.2,13l.08,1.1A3.32,3.32,0,0,1,101,12.81a2.76,2.76,0,0,1,2.25.89,4.08,4.08,0,0,1,.76,2.65V22.5h-2.54V16.41a1.69,1.69,0,0,0-.35-1.17,1.61,1.61,0,0,0-1.17-.36,1.75,1.75,0,0,0-1.61.91V22.5H95.81V13Z"/><path class="cls-2" d="M120.56,18.81l1.72-9.11h2.63l-2.84,12.8h-2.65l-2.08-8.56-2.09,8.56H112.6L109.76,9.7h2.63l1.73,9.09,2.11-9.09h2.23Z"/><path class="cls-2" d="M130.55,22.67a4.7,4.7,0,0,1-3.41-1.28A4.56,4.56,0,0,1,125.83,18v-.25a5.76,5.76,0,0,1,.55-2.56A4.08,4.08,0,0,1,128,13.42a4.48,4.48,0,0,1,2.31-.61A4,4,0,0,1,133.34,14a5,5,0,0,1,1.12,3.49v1H128.4a2.34,2.34,0,0,0,.74,1.49,2.24,2.24,0,0,0,1.57.56,2.74,2.74,0,0,0,2.3-1.06l1.24,1.4a3.76,3.76,0,0,1-1.54,1.26A5.09,5.09,0,0,1,130.55,22.67Zm-.29-7.81a1.58,1.58,0,0,0-1.23.51,2.69,2.69,0,0,0-.6,1.47H132v-.21a1.86,1.86,0,0,0-.46-1.31A1.62,1.62,0,0,0,130.26,14.86Z"/><path class="cls-2" d="M144.47,17.83a5.75,5.75,0,0,1-1,3.56,3.21,3.21,0,0,1-2.72,1.28,3,3,0,0,1-2.47-1.18l-.12,1H135.9V9h2.54v4.84a2.86,2.86,0,0,1,2.31-1,3.27,3.27,0,0,1,2.73,1.28,5.75,5.75,0,0,1,1,3.6Zm-2.54-.18a3.73,3.73,0,0,0-.46-2.11,1.54,1.54,0,0,0-1.36-.66,1.67,1.67,0,0,0-1.67,1v3.75a1.69,1.69,0,0,0,1.69,1,1.55,1.55,0,0,0,1.61-1.21A5.9,5.9,0,0,0,141.93,17.65Z"/><path class="cls-2" d="M157.32,19.14a1.37,1.37,0,0,0-.53-1.15,7.18,7.18,0,0,0-1.9-.84,13.54,13.54,0,0,1-2.17-.88,3.54,3.54,0,0,1-2.18-3.17,3.09,3.09,0,0,1,.59-1.85A3.84,3.84,0,0,1,152.8,10a6.42,6.42,0,0,1,2.46-.46,5.75,5.75,0,0,1,2.44.5,3.91,3.91,0,0,1,1.67,1.4,3.65,3.65,0,0,1,.59,2.06h-2.63a1.73,1.73,0,0,0-.56-1.37,2.3,2.3,0,0,0-1.55-.49,2.46,2.46,0,0,0-1.51.41,1.31,1.31,0,0,0-.53,1.08,1.25,1.25,0,0,0,.63,1.05,7.21,7.21,0,0,0,1.85.79,7.88,7.88,0,0,1,3.27,1.68,3.31,3.31,0,0,1,1,2.49,3.1,3.1,0,0,1-1.25,2.61,5.52,5.52,0,0,1-3.39.94,6.56,6.56,0,0,1-2.69-.54,4.25,4.25,0,0,1-1.85-1.48,3.82,3.82,0,0,1-.63-2.18h2.64c0,1.41.84,2.12,2.53,2.12a2.5,2.5,0,0,0,1.47-.38A1.26,1.26,0,0,0,157.32,19.14Z"/><path class="cls-2" d="M166,22.67a4.7,4.7,0,0,1-3.41-1.28A4.6,4.6,0,0,1,161.24,18v-.25a5.76,5.76,0,0,1,.55-2.56,4.08,4.08,0,0,1,1.57-1.74,4.49,4.49,0,0,1,2.32-.61A4,4,0,0,1,168.75,14a5,5,0,0,1,1.12,3.49v1h-6.06a2.31,2.31,0,0,0,.75,1.49,2.2,2.2,0,0,0,1.56.56,2.74,2.74,0,0,0,2.3-1.06l1.25,1.4a3.8,3.8,0,0,1-1.55,1.26A5.09,5.09,0,0,1,166,22.67Zm-.29-7.81a1.58,1.58,0,0,0-1.23.51,2.69,2.69,0,0,0-.6,1.47h3.53v-.21a1.9,1.9,0,0,0-.45-1.31A1.65,1.65,0,0,0,165.67,14.86Z"/><path class="cls-2" d="M176.65,15.37a6.33,6.33,0,0,0-.91-.07,1.86,1.86,0,0,0-1.89,1V22.5h-2.54V13h2.4l.07,1.13a2.36,2.36,0,0,1,2.12-1.31,2.56,2.56,0,0,1,.79.12Z"/><path class="cls-2" d="M181.59,19.39l1.77-6.4H186l-3.2,9.51h-2.43L177.17,13h2.66Z"/><path class="cls-2" d="M187.11,10.53a1.26,1.26,0,0,1,.38-.94,1.45,1.45,0,0,1,1-.37,1.4,1.4,0,0,1,1,.37,1.23,1.23,0,0,1,.39.94,1.27,1.27,0,0,1-.39,1,1.67,1.67,0,0,1-2.07,0A1.27,1.27,0,0,1,187.11,10.53Zm2.7,12h-2.55V13h2.55Z"/><path class="cls-2" d="M195.86,20.62a1.64,1.64,0,0,0,1.14-.38,1.37,1.37,0,0,0,.46-1h2.38a3.25,3.25,0,0,1-.53,1.77,3.45,3.45,0,0,1-1.42,1.25,4.37,4.37,0,0,1-2,.44,4.15,4.15,0,0,1-3.22-1.29,5.17,5.17,0,0,1-1.17-3.59v-.16a5.06,5.06,0,0,1,1.17-3.51,4.07,4.07,0,0,1,3.2-1.31,4,4,0,0,1,2.86,1,3.56,3.56,0,0,1,1.1,2.7h-2.38a1.76,1.76,0,0,0-.46-1.21,1.7,1.7,0,0,0-2.5.19,3.76,3.76,0,0,0-.45,2.1v.26A3.78,3.78,0,0,0,194.5,20,1.53,1.53,0,0,0,195.86,20.62Z"/><path class="cls-2" d="M205.67,22.67a4.7,4.7,0,0,1-3.41-1.28A4.56,4.56,0,0,1,201,18v-.25a5.76,5.76,0,0,1,.55-2.56,4.08,4.08,0,0,1,1.57-1.74,4.48,4.48,0,0,1,2.31-.61A4,4,0,0,1,208.46,14a5,5,0,0,1,1.12,3.49v1h-6.06a2.34,2.34,0,0,0,.74,1.49,2.24,2.24,0,0,0,1.57.56,2.74,2.74,0,0,0,2.3-1.06l1.25,1.4a3.86,3.86,0,0,1-1.55,1.26A5.09,5.09,0,0,1,205.67,22.67Zm-.29-7.81a1.58,1.58,0,0,0-1.23.51,2.69,2.69,0,0,0-.6,1.47h3.53v-.21a1.86,1.86,0,0,0-.46-1.31A1.61,1.61,0,0,0,205.38,14.86Z"/><path class="cls-2" d="M216.17,19.87a.8.8,0,0,0-.46-.73,5.19,5.19,0,0,0-1.48-.48q-3.4-.72-3.4-2.89a2.62,2.62,0,0,1,1-2.11,4.22,4.22,0,0,1,2.75-.85,4.63,4.63,0,0,1,2.9.85,2.7,2.7,0,0,1,1.08,2.22h-2.54a1.21,1.21,0,0,0-.35-.9,1.47,1.47,0,0,0-1.1-.36,1.52,1.52,0,0,0-1,.29.91.91,0,0,0-.35.74.77.77,0,0,0,.4.68,4.16,4.16,0,0,0,1.35.45,11.63,11.63,0,0,1,1.6.43,2.62,2.62,0,0,1,2,2.55,2.48,2.48,0,0,1-1.12,2.11,4.77,4.77,0,0,1-2.88.8,5.08,5.08,0,0,1-2.12-.42,3.65,3.65,0,0,1-1.46-1.17,2.73,2.73,0,0,1-.52-1.61h2.4a1.35,1.35,0,0,0,.5,1,2,2,0,0,0,1.25.36,1.82,1.82,0,0,0,1.11-.28A.86.86,0,0,0,216.17,19.87Z"/><path class="cls-2" d="M14.69,15a2.67,2.67,0,0,0,.09.71c.07.17.15.36.26.57a.33.33,0,0,1,.05.18.3.3,0,0,1-.15.24l-.5.34A.33.33,0,0,1,14,17a2.07,2.07,0,0,1-.28-.38,4.23,4.23,0,0,1-.25-.47,2.94,2.94,0,0,1-2.35,1.1,2.22,2.22,0,0,1-1.6-.57,2,2,0,0,1-.59-1.53,2.06,2.06,0,0,1,.73-1.65,2.93,2.93,0,0,1,2-.62,6.15,6.15,0,0,1,.84.06c.3,0,.6.11.92.18v-.58A1.76,1.76,0,0,0,13,11.3a1.8,1.8,0,0,0-1.3-.37,3.27,3.27,0,0,0-.86.11,6.59,6.59,0,0,0-.86.27l-.28.1a.5.5,0,0,1-.13,0c-.11,0-.17-.08-.17-.25V10.8a.48.48,0,0,1,.06-.28.72.72,0,0,1,.22-.17,5.13,5.13,0,0,1,1-.36,5.22,5.22,0,0,1,1.25-.15,2.92,2.92,0,0,1,2.09.65,2.62,2.62,0,0,1,.66,2V15Zm-3.24,1.21a2.78,2.78,0,0,0,.83-.14A1.89,1.89,0,0,0,13,15.6a1.32,1.32,0,0,0,.28-.52,3.27,3.27,0,0,0,.08-.69v-.34c-.25-.05-.49-.1-.74-.13a6.3,6.3,0,0,0-.75-.05,1.84,1.84,0,0,0-1.19.32,1.13,1.13,0,0,0-.39.92,1,1,0,0,0,1.13,1.14Zm6.41.86a.42.42,0,0,1-.3-.08.72.72,0,0,1-.17-.31l-1.87-6.17a1.14,1.14,0,0,1-.07-.32c0-.13.06-.2.19-.2h.78a.43.43,0,0,1,.31.08.73.73,0,0,1,.16.31l1.34,5.29,1.25-5.29a.52.52,0,0,1,.15-.31A.5.5,0,0,1,20,10h.64a.47.47,0,0,1,.32.08.56.56,0,0,1,.15.31l1.26,5.35,1.38-5.35a.67.67,0,0,1,.16-.31.48.48,0,0,1,.31-.08h.74a.18.18,0,0,1,.2.2s0,.08,0,.13l-.06.2-1.92,6.17A.66.66,0,0,1,23,17a.54.54,0,0,1-.3.08H22a.51.51,0,0,1-.32-.08.6.6,0,0,1-.15-.32l-1.24-5.15L19,16.71a.68.68,0,0,1-.15.32.47.47,0,0,1-.32.08Zm10.26.22a5.11,5.11,0,0,1-1.23-.15,3.44,3.44,0,0,1-.92-.32.58.58,0,0,1-.24-.22.44.44,0,0,1-.05-.22V16c0-.17.06-.25.18-.25l.15,0,.2.08a4.66,4.66,0,0,0,.87.28,5.09,5.09,0,0,0,1,.09A2.2,2.2,0,0,0,29.2,16a.86.86,0,0,0,.41-.76.77.77,0,0,0-.21-.56,2,2,0,0,0-.81-.41l-1.16-.36a2.45,2.45,0,0,1-1.27-.82,1.87,1.87,0,0,1-.4-1.15A1.83,1.83,0,0,1,26,11a2,2,0,0,1,.58-.65,2.5,2.5,0,0,1,.83-.42,3.31,3.31,0,0,1,1-.14,3.27,3.27,0,0,1,.54,0l.52.08.45.13a1.61,1.61,0,0,1,.34.15.64.64,0,0,1,.24.2.44.44,0,0,1,.07.26v.37c0,.17-.06.26-.18.26a.87.87,0,0,1-.31-.1,3.64,3.64,0,0,0-1.53-.31,2,2,0,0,0-1.06.23.76.76,0,0,0-.38.71.74.74,0,0,0,.24.56,2.36,2.36,0,0,0,.88.44l1.13.36a2.39,2.39,0,0,1,1.24.77,1.77,1.77,0,0,1,.37,1.11,2,2,0,0,1-.21.93,2.05,2.05,0,0,1-.58.7,2.49,2.49,0,0,1-.89.45A3.83,3.83,0,0,1,28.12,17.33Zm1.51,3.88a17.22,17.22,0,0,1-9.72,3A17.57,17.57,0,0,1,8,19.65c-.25-.22,0-.53.27-.35a24,24,0,0,0,11.88,3.15,23.64,23.64,0,0,0,9.06-1.85C29.69,20.4,30.06,20.89,29.63,21.21ZM30.72,20c-.33-.43-2.22-.21-3.07-.1-.26,0-.3-.19-.06-.36,1.5-1.05,4-.75,4.25-.4s-.08,2.82-1.48,4c-.22.18-.43.08-.33-.15C30.35,22.16,31.06,20.39,30.72,20Z"/></g></g></svg>