<svg xmlns="http://www.w3.org/2000/svg" viewBox="0 0 71.69 32"><defs><style>.cls-1{fill:#00599c;}.cls-2{fill:#fff;}</style></defs><g id="Слой_2" data-name="Слой 2"><g id="Слой_1-2" data-name="Слой 1"><rect class="cls-1" width="71.69" height="32" rx="6.06"/><path class="cls-2" d="M44.54,18.23A4.53,4.53,0,0,1,43,21.49a5.35,5.35,0,0,1-3.62,1.18A4.86,4.86,0,0,1,35.51,21a6.81,6.81,0,0,1-1.41-4.55v-.78a7.62,7.62,0,0,1,.66-3.26,4.88,4.88,0,0,1,1.85-2.15,5.78,5.78,0,0,1,6.38.43A4.86,4.86,0,0,1,44.55,14H41.92a2.77,2.77,0,0,0-.69-1.8,2.58,2.58,0,0,0-1.81-.55,2.23,2.23,0,0,0-2,.94,5.26,5.26,0,0,0-.67,2.93v1a5.76,5.76,0,0,0,.62,3,2.2,2.2,0,0,0,2,1A2.61,2.61,0,0,0,41.21,20a2.54,2.54,0,0,0,.69-1.73Z"/><path class="cls-2" d="M51.23,15.33H54.4v2.3H51.23v3.58H48.81V17.63H45.63v-2.3h3.18V11.9h2.42Z"/><path class="cls-2" d="M61.05,15.33h3.17v2.3H61.05v3.58H58.64V17.63H55.45v-2.3h3.19V11.9h2.41Z"/><path class="cls-2" d="M27.23,10a1.81,1.81,0,0,0-.65-.69L17.77,4.22a2.08,2.08,0,0,0-1.85,0L7.1,9.31a2,2,0,0,0-.92,1.6V21.09a1.87,1.87,0,0,0,.27.91,2,2,0,0,0,.65.69l8.82,5.09a2.05,2.05,0,0,0,1.84,0l8.82-5.09a2,2,0,0,0,.92-1.6V10.91A1.77,1.77,0,0,0,27.23,10ZM16.84,23.11A7.11,7.11,0,1,1,23,12.44l-3.08,1.78a3.56,3.56,0,1,0,0,3.56L23,19.56A7.16,7.16,0,0,1,16.84,23.11ZM24,16.39h-.79v.79h-.79v-.79h-.79V15.6h.79v-.79h.79v.79H24Zm3,0h-.79v.79h-.79v-.79h-.79V15.6h.79v-.79h.79v.79h.79Z"/></g></g></svg>