<svg xmlns="http://www.w3.org/2000/svg" viewBox="0 0 74.38 32"><defs><style>.cls-1{fill:#1572b6;}.cls-2{fill:#fff;}</style></defs><g id="Слой_2" data-name="Слой 2"><g id="Слой_1-2" data-name="Слой 1"><rect class="cls-1" width="74.38" height="32" rx="6.06"/><path class="cls-2" d="M44.54,18.23A4.53,4.53,0,0,1,43,21.49a5.33,5.33,0,0,1-3.62,1.18A4.82,4.82,0,0,1,35.52,21a6.76,6.76,0,0,1-1.42-4.55v-.78a7.59,7.59,0,0,1,.66-3.26,4.88,4.88,0,0,1,1.85-2.15,5.78,5.78,0,0,1,6.38.43A4.86,4.86,0,0,1,44.55,14H41.92a2.77,2.77,0,0,0-.69-1.8,2.58,2.58,0,0,0-1.81-.55,2.23,2.23,0,0,0-2,.94,5.26,5.26,0,0,0-.67,2.93v1a5.66,5.66,0,0,0,.63,3,2.18,2.18,0,0,0,2,1A2.61,2.61,0,0,0,41.21,20a2.54,2.54,0,0,0,.69-1.73Z"/><path class="cls-2" d="M52.9,19.14A1.36,1.36,0,0,0,52.38,18a7.34,7.34,0,0,0-1.9-.84,13.16,13.16,0,0,1-2.17-.88,3.53,3.53,0,0,1-2.18-3.17,3.08,3.08,0,0,1,.58-1.85A3.87,3.87,0,0,1,48.39,10a6.42,6.42,0,0,1,2.46-.46,5.75,5.75,0,0,1,2.44.5A3.91,3.91,0,0,1,55,11.42a3.73,3.73,0,0,1,.59,2.06H52.91a1.73,1.73,0,0,0-.55-1.37,2.31,2.31,0,0,0-1.56-.49,2.45,2.45,0,0,0-1.5.41,1.3,1.3,0,0,0-.54,1.08,1.25,1.25,0,0,0,.63,1.05,7.37,7.37,0,0,0,1.85.79,7.93,7.93,0,0,1,3.28,1.68,3.31,3.31,0,0,1,1,2.49,3.08,3.08,0,0,1-1.26,2.61,5.47,5.47,0,0,1-3.38.94,6.56,6.56,0,0,1-2.69-.54,4.19,4.19,0,0,1-1.85-1.48,3.83,3.83,0,0,1-.64-2.18h2.65c0,1.41.84,2.12,2.53,2.12a2.5,2.5,0,0,0,1.47-.38A1.25,1.25,0,0,0,52.9,19.14Z"/><path class="cls-2" d="M64,19.14A1.37,1.37,0,0,0,63.44,18a7.18,7.18,0,0,0-1.9-.84,13.93,13.93,0,0,1-2.17-.88,3.54,3.54,0,0,1-2.18-3.17,3.09,3.09,0,0,1,.59-1.85A3.87,3.87,0,0,1,59.46,10a6.4,6.4,0,0,1,2.45-.46,5.8,5.8,0,0,1,2.45.5A3.88,3.88,0,0,1,66,11.42a3.66,3.66,0,0,1,.6,2.06H64a1.76,1.76,0,0,0-.55-1.37,2.31,2.31,0,0,0-1.56-.49,2.41,2.41,0,0,0-1.5.41,1.3,1.3,0,0,0-.54,1.08,1.25,1.25,0,0,0,.63,1.05,7.21,7.21,0,0,0,1.85.79,8,8,0,0,1,3.28,1.68,3.35,3.35,0,0,1,1,2.49,3.08,3.08,0,0,1-1.26,2.61,5.52,5.52,0,0,1-3.39.94,6.48,6.48,0,0,1-2.68-.54,4.19,4.19,0,0,1-1.85-1.48,3.76,3.76,0,0,1-.64-2.18h2.64c0,1.41.85,2.12,2.53,2.12a2.5,2.5,0,0,0,1.47-.38A1.26,1.26,0,0,0,64,19.14Z"/><path class="cls-2" d="M5.63,4h21L24.72,25.56,16.11,28,7.54,25.56ZM22.72,8.41H9.54L9.76,11H19.88l-.25,2.72H13l.24,2.57h6.18L19,19.85l-2.91.8-2.95-.81L13,17.73H10.38l.29,3.85,5.46,1.71,5.38-1.53L22.72,8.41Z"/></g></g></svg>