<svg xmlns="http://www.w3.org/2000/svg" viewBox="0 0 108 32"><defs><style>.cls-1{fill:#2496ed;}.cls-2{fill:#fff;}</style></defs><g id="Слой_2" data-name="Слой 2"><g id="Слой_1-2" data-name="Слой 1"><rect class="cls-1" width="108" height="32" rx="6.06"/><path class="cls-2" d="M37.68,13.13A4.3,4.3,0,0,0,35,12.44a7.93,7.93,0,0,0-1.37.12,5.16,5.16,0,0,0-2.32-3.48l-.47-.28-.3.44a6.24,6.24,0,0,0-.83,1.93,4.6,4.6,0,0,0,.54,3.61,6.55,6.55,0,0,1-2.37.57H6.5a1,1,0,0,0-1,1,15.2,15.2,0,0,0,.94,5.5A8.32,8.32,0,0,0,9.68,26.1a14.43,14.43,0,0,0,7.15,1.54,22.12,22.12,0,0,0,4-.36A16.55,16.55,0,0,0,26,25.39a14.28,14.28,0,0,0,3.53-2.89,19.16,19.16,0,0,0,3.45-6h.31a5,5,0,0,0,3.63-1.37,4,4,0,0,0,1-1.42l.14-.39Z"/><path class="cls-2" d="M8.49,14.73h2.87a.26.26,0,0,0,.25-.26h0V11.91a.25.25,0,0,0-.25-.26H8.49a.26.26,0,0,0-.25.26h0v2.56a.26.26,0,0,0,.25.26h0"/><path class="cls-2" d="M12.44,14.73h2.87a.26.26,0,0,0,.25-.26h0V11.91a.25.25,0,0,0-.25-.26H12.44a.26.26,0,0,0-.25.26v2.56a.26.26,0,0,0,.25.26"/><path class="cls-2" d="M16.47,14.73h2.86a.26.26,0,0,0,.26-.26h0V11.91a.26.26,0,0,0-.26-.26H16.47a.26.26,0,0,0-.26.26h0v2.56a.25.25,0,0,0,.26.26h0"/><path class="cls-2" d="M20.43,14.73H23.3a.26.26,0,0,0,.26-.26V11.91a.26.26,0,0,0-.26-.26H20.43a.26.26,0,0,0-.25.26h0v2.56a.26.26,0,0,0,.25.26h0"/><path class="cls-2" d="M12.44,11.07h2.87a.26.26,0,0,0,.25-.26V8.25A.25.25,0,0,0,15.31,8H12.44a.26.26,0,0,0-.25.26v2.56a.27.27,0,0,0,.25.26"/><path class="cls-2" d="M16.47,11.07h2.86a.26.26,0,0,0,.26-.26V8.25A.26.26,0,0,0,19.33,8H16.47a.26.26,0,0,0-.26.26h0v2.56a.26.26,0,0,0,.26.26"/><path class="cls-2" d="M20.43,11.07H23.3a.27.27,0,0,0,.26-.26V8.25A.27.27,0,0,0,23.3,8H20.43a.26.26,0,0,0-.25.26h0v2.56a.26.26,0,0,0,.25.26"/><path class="cls-2" d="M20.43,7.39H23.3a.26.26,0,0,0,.26-.26V4.57a.27.27,0,0,0-.26-.26H20.43a.26.26,0,0,0-.25.26h0V7.13a.26.26,0,0,0,.25.26"/><path class="cls-2" d="M24.43,14.73h2.86a.26.26,0,0,0,.26-.26V11.91a.25.25,0,0,0-.26-.26H24.43a.26.26,0,0,0-.26.26h0v2.56a.27.27,0,0,0,.26.26"/><path class="cls-2" d="M44.49,22.5V9.7h3.94a6,6,0,0,1,3,.76,5.34,5.34,0,0,1,2.08,2.16,6.79,6.79,0,0,1,.74,3.19v.59a6.68,6.68,0,0,1-.73,3.17,5.23,5.23,0,0,1-2.07,2.15,6.08,6.08,0,0,1-3,.78Zm2.64-10.66v8.54H48.4a2.89,2.89,0,0,0,2.37-1,4.6,4.6,0,0,0,.83-2.89V15.8a4.64,4.64,0,0,0-.81-3,2.84,2.84,0,0,0-2.36-1Z"/><path class="cls-2" d="M55.63,17.65a5.69,5.69,0,0,1,.54-2.52,4,4,0,0,1,1.57-1.71,4.53,4.53,0,0,1,2.38-.61A4.31,4.31,0,0,1,63.26,14a4.75,4.75,0,0,1,1.36,3.2l0,.65a4.94,4.94,0,0,1-1.23,3.51,4.23,4.23,0,0,1-3.27,1.32,4.27,4.27,0,0,1-3.29-1.32,5.06,5.06,0,0,1-1.22-3.58Zm2.54.18a3.57,3.57,0,0,0,.51,2.08,1.67,1.67,0,0,0,1.46.72,1.7,1.7,0,0,0,1.44-.71,4,4,0,0,0,.52-2.27,3.56,3.56,0,0,0-.52-2.06,1.68,1.68,0,0,0-1.46-.73,1.65,1.65,0,0,0-1.44.73A3.92,3.92,0,0,0,58.17,17.83Z"/><path class="cls-2" d="M70.16,20.63a1.68,1.68,0,0,0,1.14-.39,1.36,1.36,0,0,0,.45-1h2.39A3.28,3.28,0,0,1,73.61,21a3.52,3.52,0,0,1-1.42,1.25,4.5,4.5,0,0,1-2,.44A4.15,4.15,0,0,1,67,21.38a5.18,5.18,0,0,1-1.18-3.59v-.16A5.06,5.06,0,0,1,67,14.12a4.1,4.1,0,0,1,3.21-1.31,4,4,0,0,1,2.86,1,3.6,3.6,0,0,1,1.1,2.7H71.75a1.75,1.75,0,0,0-.45-1.21,1.7,1.7,0,0,0-2.5.19,3.75,3.75,0,0,0-.46,2.1v.26A3.78,3.78,0,0,0,68.79,20,1.56,1.56,0,0,0,70.16,20.63Z"/><path class="cls-2" d="M79,18.68l-.91.92v2.9H75.59V9h2.54v7.48l.49-.64L81.05,13h3l-3.43,4L84.4,22.5H81.48Z"/><path class="cls-2" d="M89.58,22.67a4.66,4.66,0,0,1-3.41-1.28A4.6,4.6,0,0,1,84.86,18v-.25a5.76,5.76,0,0,1,.55-2.56A4.15,4.15,0,0,1,87,13.42a4.49,4.49,0,0,1,2.32-.61A4,4,0,0,1,92.37,14a5,5,0,0,1,1.12,3.49v1H87.43a2.35,2.35,0,0,0,.75,1.49,2.21,2.21,0,0,0,1.57.57A2.75,2.75,0,0,0,92,19.56L93.29,21a3.8,3.8,0,0,1-1.55,1.26A5.09,5.09,0,0,1,89.58,22.67Zm-.29-7.81a1.61,1.61,0,0,0-1.23.51,2.69,2.69,0,0,0-.6,1.47H91v-.21a1.9,1.9,0,0,0-.45-1.31A1.65,1.65,0,0,0,89.29,14.86Z"/><path class="cls-2" d="M100.28,15.37a6.56,6.56,0,0,0-.92-.07,1.86,1.86,0,0,0-1.89,1V22.5H94.93V13h2.4l.07,1.13a2.36,2.36,0,0,1,2.12-1.31,2.56,2.56,0,0,1,.79.12Z"/></g></g></svg>