<svg xmlns="http://www.w3.org/2000/svg" viewBox="0 0 229.42 32"><defs><style>.cls-1{fill:#4285f4;}.cls-2{fill:#fff;}</style></defs><g id="Слой_2" data-name="Слой 2"><g id="Слой_1-2" data-name="Слой 1"><rect class="cls-1" width="229.42" height="32" rx="6.06"/><path class="cls-2" d="M47.62,20.88a4.57,4.57,0,0,1-2,1.32,8.21,8.21,0,0,1-2.88.47A5.71,5.71,0,0,1,39.81,22a4.9,4.9,0,0,1-1.94-2.11,7.58,7.58,0,0,1-.7-3.24v-.87a7.9,7.9,0,0,1,.65-3.32,4.76,4.76,0,0,1,1.86-2.14,6.11,6.11,0,0,1,6.42.34,4.67,4.67,0,0,1,1.52,3.16H45.05a2.59,2.59,0,0,0-.78-1.61,2.47,2.47,0,0,0-1.65-.51,2.35,2.35,0,0,0-2,1,5.29,5.29,0,0,0-.71,3v.82a5.07,5.07,0,0,0,.76,3,2.63,2.63,0,0,0,2.24,1A2.94,2.94,0,0,0,45,19.92v-2.2h-2.4V15.77h5Z"/><path class="cls-2" d="M49.19,17.65a5.69,5.69,0,0,1,.54-2.52,4,4,0,0,1,1.57-1.71,4.56,4.56,0,0,1,2.38-.61A4.31,4.31,0,0,1,56.82,14a4.7,4.7,0,0,1,1.36,3.2l0,.65A5,5,0,0,1,57,21.35a4.74,4.74,0,0,1-6.56,0,5,5,0,0,1-1.23-3.58Zm2.54.18a3.57,3.57,0,0,0,.51,2.08,1.84,1.84,0,0,0,2.9,0,3.88,3.88,0,0,0,.52-2.27,3.49,3.49,0,0,0-.52-2.06,1.68,1.68,0,0,0-1.46-.73,1.65,1.65,0,0,0-1.44.73A3.92,3.92,0,0,0,51.73,17.83Z"/><path class="cls-2" d="M59.37,17.65a5.69,5.69,0,0,1,.54-2.52,4,4,0,0,1,1.57-1.71,4.53,4.53,0,0,1,2.38-.61A4.31,4.31,0,0,1,67,14a4.75,4.75,0,0,1,1.36,3.2l0,.65a4.94,4.94,0,0,1-1.23,3.51,4.23,4.23,0,0,1-3.27,1.32,4.27,4.27,0,0,1-3.29-1.32,5.06,5.06,0,0,1-1.22-3.58Zm2.54.18a3.57,3.57,0,0,0,.51,2.08,1.67,1.67,0,0,0,1.46.71,1.69,1.69,0,0,0,1.44-.7,4,4,0,0,0,.52-2.27,3.56,3.56,0,0,0-.52-2.06,1.68,1.68,0,0,0-1.46-.73,1.65,1.65,0,0,0-1.44.73A3.92,3.92,0,0,0,61.91,17.83Z"/><path class="cls-2" d="M69.57,17.67a5.58,5.58,0,0,1,1-3.52,3.39,3.39,0,0,1,2.81-1.34,3,3,0,0,1,2.44,1.07L76,13h2.3v9.19a4.12,4.12,0,0,1-.56,2.17,3.61,3.61,0,0,1-1.6,1.41,5.63,5.63,0,0,1-2.41.48,5.25,5.25,0,0,1-2-.42,3.54,3.54,0,0,1-1.5-1.07l1.13-1.55a3,3,0,0,0,2.3,1.06,2.17,2.17,0,0,0,1.57-.54,2,2,0,0,0,.56-1.53v-.51a2.92,2.92,0,0,1-2.31,1,3.35,3.35,0,0,1-2.77-1.34,5.54,5.54,0,0,1-1.06-3.55Zm2.54.19a3.45,3.45,0,0,0,.52,2,1.65,1.65,0,0,0,1.42.73,1.75,1.75,0,0,0,1.66-.87v-4a1.75,1.75,0,0,0-1.64-.87,1.66,1.66,0,0,0-1.44.75A4,4,0,0,0,72.11,17.86Z"/><path class="cls-2" d="M82.9,22.5H80.35V9H82.9Z"/><path class="cls-2" d="M89.36,22.67A4.67,4.67,0,0,1,86,21.39,4.57,4.57,0,0,1,84.64,18v-.25a5.76,5.76,0,0,1,.56-2.56,4.08,4.08,0,0,1,1.57-1.74,4.36,4.36,0,0,1,2.31-.61A3.93,3.93,0,0,1,92.15,14a5,5,0,0,1,1.13,3.49v1H87.22A2.34,2.34,0,0,0,88,20.06a2.24,2.24,0,0,0,1.57.56,2.76,2.76,0,0,0,2.3-1.06L93.07,21a3.76,3.76,0,0,1-1.54,1.26A5.11,5.11,0,0,1,89.36,22.67Zm-.29-7.81a1.58,1.58,0,0,0-1.22.51,2.55,2.55,0,0,0-.6,1.47h3.53v-.21a1.86,1.86,0,0,0-.46-1.31A1.63,1.63,0,0,0,89.07,14.86Z"/><path class="cls-2" d="M109.41,18.23a4.56,4.56,0,0,1-1.52,3.26,5.38,5.38,0,0,1-3.63,1.18A4.82,4.82,0,0,1,100.39,21,6.81,6.81,0,0,1,99,16.47v-.78a7.74,7.74,0,0,1,.65-3.26,4.84,4.84,0,0,1,1.86-2.15,5.12,5.12,0,0,1,2.81-.76,5.25,5.25,0,0,1,3.57,1.19A4.86,4.86,0,0,1,109.43,14h-2.64a2.67,2.67,0,0,0-.69-1.8,2.54,2.54,0,0,0-1.8-.55,2.25,2.25,0,0,0-2,.94,5.34,5.34,0,0,0-.67,2.93v1a5.66,5.66,0,0,0,.63,3,2.2,2.2,0,0,0,2,1,2.64,2.64,0,0,0,1.83-.56,2.54,2.54,0,0,0,.69-1.73Z"/><path class="cls-2" d="M113.66,22.5h-2.55V9h2.55Z"/><path class="cls-2" d="M115.35,17.65a5.69,5.69,0,0,1,.55-2.52,3.89,3.89,0,0,1,1.57-1.71,4.5,4.5,0,0,1,2.37-.61A4.32,4.32,0,0,1,123,14a4.7,4.7,0,0,1,1.35,3.2l0,.65a5,5,0,0,1-1.22,3.51,4.74,4.74,0,0,1-6.56,0,5,5,0,0,1-1.23-3.58Zm2.54.18a3.57,3.57,0,0,0,.51,2.08,1.84,1.84,0,0,0,2.9,0,3.88,3.88,0,0,0,.52-2.27,3.49,3.49,0,0,0-.52-2.06,1.67,1.67,0,0,0-1.46-.73,1.65,1.65,0,0,0-1.44.73A3.92,3.92,0,0,0,117.89,17.83Z"/><path class="cls-2" d="M131.62,21.53a3.17,3.17,0,0,1-2.6,1.14,3,3,0,0,1-2.33-.88,3.7,3.7,0,0,1-.82-2.57V13h2.54v6.15c0,1,.45,1.48,1.35,1.48a1.82,1.82,0,0,0,1.77-.89V13h2.55V22.5h-2.39Z"/><path class="cls-2" d="M135.6,17.67a5.76,5.76,0,0,1,1-3.54,3.25,3.25,0,0,1,2.73-1.32,2.9,2.9,0,0,1,2.29,1V9h2.55V22.5h-2.29l-.12-1a3,3,0,0,1-2.45,1.18,3.23,3.23,0,0,1-2.69-1.32A5.9,5.9,0,0,1,135.6,17.67Zm2.54.19a3.74,3.74,0,0,0,.47,2.05,1.5,1.5,0,0,0,1.35.71,1.69,1.69,0,0,0,1.66-1V15.87a1.66,1.66,0,0,0-1.64-1C138.76,14.88,138.14,15.87,138.14,17.86Z"/><path class="cls-2" d="M153.43,18V22.5h-2.64V9.7h5a5.82,5.82,0,0,1,2.54.53,3.84,3.84,0,0,1,1.68,1.5,4.17,4.17,0,0,1,.59,2.21,3.66,3.66,0,0,1-1.29,3A5.32,5.32,0,0,1,155.74,18Zm0-2.14h2.35a2.32,2.32,0,0,0,1.6-.49,1.82,1.82,0,0,0,.55-1.41,2.13,2.13,0,0,0-.56-1.52,2.07,2.07,0,0,0-1.53-.59h-2.41Z"/><path class="cls-2" d="M164.91,22.5h-2.54V9h2.54Z"/><path class="cls-2" d="M172.52,22.5a3,3,0,0,1-.26-.86,3,3,0,0,1-2.4,1,3.36,3.36,0,0,1-2.31-.81,2.57,2.57,0,0,1-.92-2,2.69,2.69,0,0,1,1.12-2.32,5.57,5.57,0,0,1,3.24-.81h1.17v-.55a1.58,1.58,0,0,0-.34-1.05,1.32,1.32,0,0,0-1.07-.4,1.51,1.51,0,0,0-1,.31,1,1,0,0,0-.36.84h-2.54a2.56,2.56,0,0,1,.51-1.53,3.46,3.46,0,0,1,1.44-1.1,5.19,5.19,0,0,1,2.09-.4,4.2,4.2,0,0,1,2.79.88,3.1,3.1,0,0,1,1,2.49V20.3a4.6,4.6,0,0,0,.37,2.05v.15Zm-2.1-1.77a2.12,2.12,0,0,0,1-.25,1.71,1.71,0,0,0,.71-.67V18.17h-.95c-1.27,0-2,.44-2,1.32v.15a1,1,0,0,0,.33.78A1.3,1.3,0,0,0,170.42,20.73Z"/><path class="cls-2" d="M179.7,10.65V13h1.62v1.86H179.7V19.6a1.14,1.14,0,0,0,.2.75,1,1,0,0,0,.77.23,4.22,4.22,0,0,0,.75-.06v1.92a5,5,0,0,1-1.54.23,2.42,2.42,0,0,1-2.72-2.7V14.85h-1.39V13h1.39V10.65Z"/><path class="cls-2" d="M183.43,22.5V14.85H182V13h1.41v-.81a3.27,3.27,0,0,1,.92-2.48,3.55,3.55,0,0,1,2.57-.89,5.8,5.8,0,0,1,1.29.18l0,2a2.92,2.92,0,0,0-.78-.08c-.95,0-1.43.45-1.43,1.34V13h1.89v1.86H186V22.5Z"/><path class="cls-2" d="M188.79,17.65a5.69,5.69,0,0,1,.55-2.52,3.94,3.94,0,0,1,1.57-1.71,4.51,4.51,0,0,1,2.38-.61A4.31,4.31,0,0,1,196.43,14a4.75,4.75,0,0,1,1.36,3.2v.65a4.94,4.94,0,0,1-1.22,3.51,4.74,4.74,0,0,1-6.56,0,5,5,0,0,1-1.23-3.58Zm2.54.18a3.57,3.57,0,0,0,.51,2.08,1.68,1.68,0,0,0,1.46.71,1.7,1.7,0,0,0,1.45-.7,4,4,0,0,0,.51-2.27,3.56,3.56,0,0,0-.51-2.06,1.69,1.69,0,0,0-1.46-.73,1.65,1.65,0,0,0-1.45.73A3.92,3.92,0,0,0,191.33,17.83Z"/><path class="cls-2" d="M204.71,15.37a6.33,6.33,0,0,0-.91-.07,1.86,1.86,0,0,0-1.89,1V22.5h-2.54V13h2.4l.07,1.13A2.35,2.35,0,0,1,204,12.81a2.56,2.56,0,0,1,.79.12Z"/><path class="cls-2" d="M208.32,13l.07,1.06a3.35,3.35,0,0,1,2.74-1.24,2.53,2.53,0,0,1,2.52,1.45,3.26,3.26,0,0,1,2.86-1.45,2.83,2.83,0,0,1,2.3.9,4.17,4.17,0,0,1,.76,2.71V22.5H217V16.43a1.81,1.81,0,0,0-.32-1.18,1.4,1.4,0,0,0-1.12-.37A1.58,1.58,0,0,0,214,16V22.5h-2.54V16.44a1.8,1.8,0,0,0-.32-1.19,1.41,1.41,0,0,0-1.11-.37,1.67,1.67,0,0,0-1.57.89V22.5h-2.54V13Z"/><path class="cls-2" d="M18.66,6.38a9.33,9.33,0,0,0-9.23,6.89h0a6.69,6.69,0,0,0-.25,10.94h0v0a6.73,6.73,0,0,0,4.08,1.35h5.17l0,0h5.19a6.75,6.75,0,0,0,3.84-12.35,9.34,9.34,0,0,0-2.83-4.55l0,0v0A9.38,9.38,0,0,0,18.66,6.38Zm-.36,4.15a5.3,5.3,0,0,1,3.49,1.15,5.15,5.15,0,0,1,1.86,4.07v.52c3.53-.07,3.53,5.26,0,5.19h-5.2v0H13.26a2.45,2.45,0,0,1-1.07-.23h0a2.6,2.6,0,1,1,3.44-3.43l3-3a6.77,6.77,0,0,0-4.06-2.51s0,0,.05,0a5.17,5.17,0,0,1,3.67-1.69Z"/></g></g></svg>