<svg xmlns="http://www.w3.org/2000/svg" viewBox="0 0 167.05 32"><defs><style>.cls-1{fill:#2088ff;}.cls-2{fill:#fff;}</style></defs><g id="Слой_2" data-name="Слой 2"><g id="Слой_1-2" data-name="Слой 1"><rect class="cls-1" width="167.05" height="32" rx="6.06"/><path class="cls-2" d="M48.62,20.88a4.57,4.57,0,0,1-2,1.32,8.21,8.21,0,0,1-2.88.47A5.71,5.71,0,0,1,40.81,22a4.9,4.9,0,0,1-1.94-2.11,7.44,7.44,0,0,1-.69-3.24v-.87a7.9,7.9,0,0,1,.64-3.32,4.76,4.76,0,0,1,1.86-2.14,6.11,6.11,0,0,1,6.42.34,4.67,4.67,0,0,1,1.52,3.16H46.05a2.59,2.59,0,0,0-.78-1.61,2.47,2.47,0,0,0-1.65-.51,2.35,2.35,0,0,0-2,1,5.29,5.29,0,0,0-.71,3v.82a5.07,5.07,0,0,0,.76,3,2.63,2.63,0,0,0,2.24,1A2.94,2.94,0,0,0,46,19.92v-2.2h-2.4V15.77h5Z"/><path class="cls-2" d="M50.57,10.53A1.22,1.22,0,0,1,51,9.59a1.41,1.41,0,0,1,1-.37,1.42,1.42,0,0,1,1,.37,1.23,1.23,0,0,1,.39.94,1.28,1.28,0,0,1-.4,1,1.65,1.65,0,0,1-2.06,0A1.27,1.27,0,0,1,50.57,10.53Zm2.7,12H50.72V13h2.55Z"/><path class="cls-2" d="M58.4,10.65V13H60v1.86H58.4V19.6a1.14,1.14,0,0,0,.2.75,1,1,0,0,0,.77.23,4.14,4.14,0,0,0,.75-.06v1.92a5,5,0,0,1-1.54.23A2.42,2.42,0,0,1,55.86,20V14.85H54.47V13h1.39V10.65Z"/><path class="cls-2" d="M72,22.5H69.39V17H64.24V22.5H61.61V9.7h2.63v5.19h5.15V9.7H72Z"/><path class="cls-2" d="M79.85,21.53a3.17,3.17,0,0,1-2.6,1.14,3,3,0,0,1-2.33-.88,3.7,3.7,0,0,1-.82-2.57V13h2.54v6.15c0,1,.45,1.48,1.35,1.48a1.82,1.82,0,0,0,1.77-.89V13h2.55V22.5H79.92Z"/><path class="cls-2" d="M92.8,17.83a5.75,5.75,0,0,1-1,3.56,3.21,3.21,0,0,1-2.72,1.28,3,3,0,0,1-2.47-1.18l-.12,1H84.23V9h2.54v4.84a2.89,2.89,0,0,1,2.31-1,3.27,3.27,0,0,1,2.73,1.28,5.75,5.75,0,0,1,1,3.6Zm-2.54-.18a3.73,3.73,0,0,0-.46-2.11,1.54,1.54,0,0,0-1.36-.66,1.67,1.67,0,0,0-1.67,1v3.75a1.69,1.69,0,0,0,1.69,1,1.55,1.55,0,0,0,1.61-1.21A5.9,5.9,0,0,0,90.26,17.65Z"/><path class="cls-2" d="M106.24,19.86h-4.63l-.87,2.64H97.93L102.7,9.7h2.44l4.79,12.8h-2.8Zm-3.91-2.14h3.2l-1.61-4.79Z"/><path class="cls-2" d="M114.91,20.62a1.64,1.64,0,0,0,1.14-.38,1.33,1.33,0,0,0,.46-1h2.38a3.27,3.27,0,0,1-.52,1.77A3.52,3.52,0,0,1,117,22.23a4.54,4.54,0,0,1-2,.44,4.14,4.14,0,0,1-3.22-1.29,5.13,5.13,0,0,1-1.18-3.59v-.16a5.06,5.06,0,0,1,1.17-3.51,4.1,4.1,0,0,1,3.21-1.31,4,4,0,0,1,2.86,1,3.55,3.55,0,0,1,1.09,2.7h-2.38a1.71,1.71,0,0,0-.46-1.21,1.5,1.5,0,0,0-1.16-.46,1.55,1.55,0,0,0-1.34.65,3.76,3.76,0,0,0-.45,2.1v.26a3.78,3.78,0,0,0,.45,2.11A1.54,1.54,0,0,0,114.91,20.62Z"/><path class="cls-2" d="M123.39,10.65V13H125v1.86h-1.62V19.6a1.09,1.09,0,0,0,.2.75,1,1,0,0,0,.77.23,4.22,4.22,0,0,0,.75-.06v1.92a5,5,0,0,1-1.54.23,2.43,2.43,0,0,1-2.73-2.7V14.85h-1.38V13h1.38V10.65Z"/><path class="cls-2" d="M126.41,10.53a1.26,1.26,0,0,1,.38-.94,1.65,1.65,0,0,1,2.08,0,1.33,1.33,0,0,1,0,1.89,1.65,1.65,0,0,1-2.06,0A1.27,1.27,0,0,1,126.41,10.53Zm2.7,12h-2.55V13h2.55Z"/><path class="cls-2" d="M130.8,17.65a5.56,5.56,0,0,1,.55-2.52,3.89,3.89,0,0,1,1.57-1.71,4.5,4.5,0,0,1,2.37-.61A4.33,4.33,0,0,1,138.44,14a4.7,4.7,0,0,1,1.35,3.2l0,.65a5,5,0,0,1-1.22,3.51,4.74,4.74,0,0,1-6.56,0,5,5,0,0,1-1.23-3.58Zm2.54.18a3.57,3.57,0,0,0,.51,2.08,1.84,1.84,0,0,0,2.9,0,3.88,3.88,0,0,0,.52-2.27,3.49,3.49,0,0,0-.52-2.06,1.67,1.67,0,0,0-1.46-.73,1.65,1.65,0,0,0-1.44.73A3.92,3.92,0,0,0,133.34,17.83Z"/><path class="cls-2" d="M143.71,13l.08,1.1a3.33,3.33,0,0,1,2.74-1.28,2.79,2.79,0,0,1,2.25.89,4.14,4.14,0,0,1,.75,2.65V22.5H147V16.42a1.63,1.63,0,0,0-.35-1.18,1.58,1.58,0,0,0-1.17-.36,1.75,1.75,0,0,0-1.61.91V22.5h-2.54V13Z"/><path class="cls-2" d="M156.61,19.87a.82.82,0,0,0-.46-.73,5.3,5.3,0,0,0-1.48-.48q-3.4-.72-3.4-2.89a2.62,2.62,0,0,1,1-2.11,4.22,4.22,0,0,1,2.75-.85,4.63,4.63,0,0,1,2.9.85,2.7,2.7,0,0,1,1.08,2.22h-2.54a1.25,1.25,0,0,0-.35-.9,1.47,1.47,0,0,0-1.1-.36,1.52,1.52,0,0,0-1,.29.91.91,0,0,0-.35.74.77.77,0,0,0,.4.68,4.16,4.16,0,0,0,1.35.45,11.08,11.08,0,0,1,1.59.43,2.62,2.62,0,0,1,2,2.55A2.48,2.48,0,0,1,158,21.87a4.83,4.83,0,0,1-2.88.8,5,5,0,0,1-2.12-.42,3.65,3.65,0,0,1-1.46-1.17,2.75,2.75,0,0,1-.53-1.61h2.41a1.35,1.35,0,0,0,.5,1,2,2,0,0,0,1.25.36,1.79,1.79,0,0,0,1.1-.28A.85.85,0,0,0,156.61,19.87Z"/><path class="cls-2" d="M16.36,17.84a.53.53,0,0,1-.36-.15L15.26,17a.5.5,0,1,1,.69-.72h0l.4.39,1.18-1.18a.48.48,0,0,1,.7,0,.5.5,0,0,1,0,.71h0l-1.53,1.53A.51.51,0,0,1,16.36,17.84Zm9.35-.15,1.53-1.53a.5.5,0,0,0,0-.71.49.49,0,0,0-.69,0l-1.19,1.18L25,16.24a.5.5,0,0,0-.72.69l0,0,.74.74a.5.5,0,0,0,.71,0ZM9.9,11.45l2.56-1.58a1,1,0,0,0,.32-1.38,1,1,0,0,0-.32-.32L9.9,6.56a1,1,0,0,0-1.37.31,1,1,0,0,0-.16.54V10.6a1,1,0,0,0,1,1A1,1,0,0,0,9.9,11.45Zm2-2.43L9.37,10.6V7.41ZM29.37,16.5a3.5,3.5,0,0,1-7,.5H20.33a3.5,3.5,0,0,1-6.92,0h-.56a3.47,3.47,0,0,1-2.48-1v5a3,3,0,0,0,3,3h0a3.5,3.5,0,1,1,0,1h0a4,4,0,0,1-4-4V13.9a5,5,0,1,1,1.05.1,2.48,2.48,0,0,0,2.43,2h.56a3.5,3.5,0,0,1,6.92,0h2.08a3.5,3.5,0,0,1,7,.5Zm-15,8a2.5,2.5,0,1,0,2.5-2.5A2.5,2.5,0,0,0,14.37,24.5Zm-4-11.5a4,4,0,1,0-4-4A4,4,0,0,0,10.37,13Zm9,3.5a2.5,2.5,0,1,0-2.5,2.5A2.5,2.5,0,0,0,19.37,16.5Zm9,0a2.5,2.5,0,1,0-2.5,2.5A2.5,2.5,0,0,0,28.37,16.5Zm-13,8a.5.5,0,0,0,.5.5.5.5,0,1,0,0-1A.5.5,0,0,0,15.37,24.5Zm2,0a.5.5,0,0,0,.5.5.5.5,0,1,0,0-1A.5.5,0,0,0,17.37,24.5Zm12,0a3.5,3.5,0,0,1-7,.5h0l-.51,0h0a.5.5,0,0,1-.49-.51.51.51,0,0,1,.47-.49l.51,0h.05a3.5,3.5,0,0,1,7,.49Zm-1,0a2.5,2.5,0,1,0-2.5,2.5A2.5,2.5,0,0,0,28.37,24.5Z"/></g></g></svg>