<svg xmlns="http://www.w3.org/2000/svg" viewBox="0 0 114 32"><defs><style>.cls-1{fill:#e10098;}.cls-2,.cls-3{fill:#fff;}.cls-3{font-size:18px;font-family:Roboto-Bold, Roboto;font-weight:700;}.cls-4{letter-spacing:-0.01em;}</style></defs><g id="Слой_2" data-name="Слой 2"><g id="Слой_1-2" data-name="Слой 1"><rect class="cls-1" width="114" height="32" rx="6.06"/><path class="cls-2" d="M19.25,6.48l4.94,2.85a2.14,2.14,0,0,1,3-.08,2.23,2.23,0,0,1,.38.48,2.17,2.17,0,0,1-1.36,3.15v5.7a2.12,2.12,0,0,1,1.58,2.57,2.42,2.42,0,0,1-.23.58,2.13,2.13,0,0,1-3.45.35l-4.91,2.83a2.15,2.15,0,0,1-1.36,2.71,2.19,2.19,0,0,1-.67.11,2.14,2.14,0,0,1-2.14-2.14,2.1,2.1,0,0,1,.09-.61l-4.94-2.85a2.14,2.14,0,1,1-2.05-3.56V12.88a2.15,2.15,0,0,1-1.58-2.59,2.11,2.11,0,0,1,.22-.56,2.15,2.15,0,0,1,2.93-.79,2,2,0,0,1,.48.38l4.94-2.85a2.14,2.14,0,0,1,1.44-2.66,2.09,2.09,0,0,1,.61-.08,2.13,2.13,0,0,1,2.14,2.13A2.16,2.16,0,0,1,19.25,6.48Zm-.51.87-.06.06L25.14,18.6l.08,0V12.87a2.14,2.14,0,0,1-1.56-2.59.19.19,0,0,0,0-.07Zm-3,.06-.06-.06L10.72,10.2a2.15,2.15,0,0,1-1.47,2.65l-.07,0v5.71l.08,0L15.72,7.41Zm2.08.51a2.19,2.19,0,0,1-1.19,0L10.15,19.11a2.18,2.18,0,0,1,.6,1H23.66a2,2,0,0,1,.6-1Zm1,16.23,4.92-2.84a1,1,0,0,1,0-.14H10.74l0,.08,4.94,2.85a2.14,2.14,0,0,1,3.12,0Z"/><text class="cls-3" transform="translate(34.88 22.21)">G<tspan class="cls-4" x="12.26" y="0">r</tspan><tspan x="18.56" y="0">aphQL</tspan></text></g></g></svg>