<svg xmlns="http://www.w3.org/2000/svg" viewBox="0 0 114 32"><defs><style>.cls-1{fill:#e10098;}.cls-2{fill:#fff;}</style></defs><g id="Слой_2" data-name="Слой 2"><g id="Слой_1-2" data-name="Слой 1"><rect class="cls-1" width="114" height="32" rx="6.06"/><path class="cls-2" d="M19.25,6.48l4.94,2.85a2.14,2.14,0,0,1,3-.08,2.23,2.23,0,0,1,.38.48,2.17,2.17,0,0,1-1.36,3.15v5.7a2.12,2.12,0,0,1,1.58,2.57,2.42,2.42,0,0,1-.23.58,2.13,2.13,0,0,1-3.45.35l-4.91,2.83a2.15,2.15,0,0,1-1.36,2.71,2.19,2.19,0,0,1-.67.11,2.14,2.14,0,0,1-2.14-2.14,2.1,2.1,0,0,1,.09-.61l-4.94-2.85a2.14,2.14,0,1,1-2.05-3.56V12.88a2.15,2.15,0,0,1-1.58-2.59,2.11,2.11,0,0,1,.22-.56,2.15,2.15,0,0,1,2.93-.79,2,2,0,0,1,.48.38l4.94-2.85a2.14,2.14,0,0,1,1.44-2.66,2.09,2.09,0,0,1,.61-.08,2.13,2.13,0,0,1,2.14,2.13A2.16,2.16,0,0,1,19.25,6.48Zm-.51.87-.06.06L25.14,18.6l.08,0V12.87a2.14,2.14,0,0,1-1.56-2.59.19.19,0,0,0,0-.07Zm-3,.06-.06-.06L10.72,10.2a2.15,2.15,0,0,1-1.47,2.65l-.07,0v5.71l.08,0L15.72,7.41Zm2.08.51a2.19,2.19,0,0,1-1.19,0L10.15,19.11a2.18,2.18,0,0,1,.6,1H23.66a2,2,0,0,1,.6-1Zm1,16.23,4.92-2.84a1,1,0,0,1,0-.14H10.74l0,.08,4.94,2.85a2.14,2.14,0,0,1,3.12,0Z"/><path class="cls-2" d="M46.15,20.59a4.67,4.67,0,0,1-2,1.33,8.45,8.45,0,0,1-2.88.47,5.71,5.71,0,0,1-2.91-.73,4.82,4.82,0,0,1-1.94-2.1,7.48,7.48,0,0,1-.69-3.25v-.87a7.93,7.93,0,0,1,.64-3.32A4.82,4.82,0,0,1,38.21,10a5.37,5.37,0,0,1,2.86-.74,5.39,5.39,0,0,1,3.56,1.08,4.69,4.69,0,0,1,1.52,3.16H43.58a2.59,2.59,0,0,0-.78-1.61,2.47,2.47,0,0,0-1.65-.51,2.33,2.33,0,0,0-2,1,5.23,5.23,0,0,0-.71,3v.82a5.07,5.07,0,0,0,.76,3,2.64,2.64,0,0,0,2.24,1,2.89,2.89,0,0,0,2.12-.64v-2.2h-2.4V15.49h5Z"/><path class="cls-2" d="M53.46,15.08a8.38,8.38,0,0,0-.91-.07,1.85,1.85,0,0,0-1.89,1v6.22H48.12V12.7h2.4l.07,1.13a2.35,2.35,0,0,1,2.11-1.31,2.52,2.52,0,0,1,.79.12Z"/><path class="cls-2" d="M59.93,22.21a2.94,2.94,0,0,1-.26-.85,3.08,3.08,0,0,1-2.4,1A3.36,3.36,0,0,1,55,21.58a2.61,2.61,0,0,1-.92-2,2.68,2.68,0,0,1,1.12-2.32,5.57,5.57,0,0,1,3.24-.82h1.17v-.54a1.55,1.55,0,0,0-.34-1.06,1.35,1.35,0,0,0-1.07-.39,1.51,1.51,0,0,0-1,.3,1,1,0,0,0-.37.85H54.25A2.56,2.56,0,0,1,54.76,14a3.4,3.4,0,0,1,1.44-1.11,5.37,5.37,0,0,1,2.09-.4,4.12,4.12,0,0,1,2.79.89,3.08,3.08,0,0,1,1,2.48V20a4.54,4.54,0,0,0,.37,2v.15Zm-2.1-1.77a2.12,2.12,0,0,0,1-.25,1.59,1.59,0,0,0,.71-.67V17.89h-1c-1.27,0-1.95.44-2,1.31v.15a1,1,0,0,0,.33.79A1.34,1.34,0,0,0,57.83,20.44Z"/><path class="cls-2" d="M72.63,17.54a5.66,5.66,0,0,1-1,3.52,3.2,3.2,0,0,1-2.69,1.33,3,3,0,0,1-2.33-1v4.49H64.07V12.7h2.35l.09.93a3,3,0,0,1,2.41-1.11,3.22,3.22,0,0,1,2.73,1.31,5.83,5.83,0,0,1,1,3.58Zm-2.54-.18a3.77,3.77,0,0,0-.47-2,1.54,1.54,0,0,0-1.37-.72,1.65,1.65,0,0,0-1.64.91v3.9a1.7,1.7,0,0,0,1.66.94C69.48,20.34,70.09,19.34,70.09,17.36Z"/><path class="cls-2" d="M76.68,13.74a3.17,3.17,0,0,1,2.54-1.22q3.09,0,3.14,3.6v6.09H79.82v-6A1.78,1.78,0,0,0,79.47,15a1.53,1.53,0,0,0-1.17-.39,1.73,1.73,0,0,0-1.62.86v6.76H74.14V8.71h2.54Z"/><path class="cls-2" d="M94.94,16.1a7.65,7.65,0,0,1-.59,3.12,5.3,5.3,0,0,1-1.6,2.12L94.87,23,93.19,24.5l-2.72-2.19a6,6,0,0,1-1,.08,5.35,5.35,0,0,1-2.84-.77,5.13,5.13,0,0,1-1.93-2.18A7.41,7.41,0,0,1,84,16.17v-.63a7.62,7.62,0,0,1,.68-3.33A5,5,0,0,1,86.64,10a5.64,5.64,0,0,1,5.69,0,5,5,0,0,1,1.92,2.2,7.61,7.61,0,0,1,.69,3.32Zm-2.68-.58a5.4,5.4,0,0,0-.72-3.06,2.55,2.55,0,0,0-4.1,0,5.29,5.29,0,0,0-.73,3v.62a5.44,5.44,0,0,0,.72,3,2.34,2.34,0,0,0,2.07,1.08,2.3,2.3,0,0,0,2-1,5.3,5.3,0,0,0,.72-3Z"/><path class="cls-2" d="M99.51,20.09h5.59v2.12H96.87V9.41h2.64Z"/></g></g></svg>