<svg xmlns="http://www.w3.org/2000/svg" viewBox="0 0 106.52 32"><defs><style>.cls-1{fill:#5d4f85;}.cls-2{fill:#fff;}</style></defs><g id="Слой_2" data-name="Слой 2"><g id="Слой_1-2" data-name="Слой 1"><rect class="cls-1" width="106.52" height="32" rx="6.06"/><path class="cls-2" d="M48.91,22.5H46.27V17H41.13V22.5H38.49V9.7h2.64v5.19h5.14V9.7h2.64Z"/><path class="cls-2" d="M56.55,22.5a3,3,0,0,1-.25-.86,3.07,3.07,0,0,1-2.4,1,3.4,3.4,0,0,1-2.32-.81,2.58,2.58,0,0,1-.92-2,2.72,2.72,0,0,1,1.12-2.33A5.57,5.57,0,0,1,55,16.69h1.17v-.55a1.53,1.53,0,0,0-.34-1.05,1.3,1.3,0,0,0-1.06-.4,1.49,1.49,0,0,0-1,.31,1.06,1.06,0,0,0-.36.84H50.88a2.61,2.61,0,0,1,.5-1.53,3.5,3.5,0,0,1,1.45-1.1,5.16,5.16,0,0,1,2.09-.4,4.2,4.2,0,0,1,2.79.88,3.1,3.1,0,0,1,1,2.49V20.3a4.58,4.58,0,0,0,.38,2.05v.15Zm-2.1-1.77a2.16,2.16,0,0,0,1-.25,1.62,1.62,0,0,0,.7-.67V18.17h-.95c-1.27,0-1.94.44-2,1.32v.15a1,1,0,0,0,.34.78A1.27,1.27,0,0,0,54.45,20.73Z"/><path class="cls-2" d="M65.84,19.87a.82.82,0,0,0-.46-.74,5.59,5.59,0,0,0-1.48-.47q-3.39-.72-3.39-2.89a2.6,2.6,0,0,1,1.05-2.11,4.19,4.19,0,0,1,2.74-.85,4.61,4.61,0,0,1,2.9.85,2.71,2.71,0,0,1,1.09,2.22H65.75a1.21,1.21,0,0,0-.36-.9,1.46,1.46,0,0,0-1.09-.36,1.57,1.57,0,0,0-1,.29.94.94,0,0,0-.35.74.77.77,0,0,0,.4.68,4.34,4.34,0,0,0,1.35.45,11.25,11.25,0,0,1,1.6.43,2.62,2.62,0,0,1,2,2.55,2.49,2.49,0,0,1-1.11,2.11,4.89,4.89,0,0,1-2.89.8,5.11,5.11,0,0,1-2.12-.42,3.62,3.62,0,0,1-1.45-1.17,2.68,2.68,0,0,1-.53-1.61h2.41a1.32,1.32,0,0,0,.5,1,2,2,0,0,0,1.25.36,1.81,1.81,0,0,0,1.1-.28A.84.84,0,0,0,65.84,19.87Z"/><path class="cls-2" d="M73.4,18.68l-.91.92v2.9H70V9h2.54v7.48l.49-.64L75.41,13h3L75,17l3.73,5.55H75.84Z"/><path class="cls-2" d="M83.94,22.67a4.67,4.67,0,0,1-3.41-1.28A4.6,4.6,0,0,1,79.22,18v-.25a5.76,5.76,0,0,1,.55-2.56,4.15,4.15,0,0,1,1.57-1.74,4.39,4.39,0,0,1,2.32-.61A4,4,0,0,1,86.73,14a5,5,0,0,1,1.12,3.49v1h-6a2.29,2.29,0,0,0,.74,1.49,2.21,2.21,0,0,0,1.57.57,2.73,2.73,0,0,0,2.29-1.07L87.65,21a3.8,3.8,0,0,1-1.55,1.26A5.09,5.09,0,0,1,83.94,22.67Zm-.29-7.81a1.61,1.61,0,0,0-1.23.51,2.69,2.69,0,0,0-.6,1.47h3.53v-.21a1.9,1.9,0,0,0-.45-1.31A1.65,1.65,0,0,0,83.65,14.86Z"/><path class="cls-2" d="M92,22.5H89.42V9H92Z"/><path class="cls-2" d="M96.75,22.5H94.2V9h2.55Z"/><path class="cls-2" d="M6.79,24.47,12.43,16,6.79,7.53H11L16.7,16,11,24.47Zm5.64,0L18.08,16,12.44,7.53H16.7L28,24.47H23.73L20.2,19.13l-3.5,5.34Zm13.66-4.95L24.21,16.7h6.57v2.82Zm-2.83-4.23-1.88-2.83h9.39v2.83Z"/></g></g></svg>