<svg xmlns="http://www.w3.org/2000/svg" viewBox="0 0 90.32 32"><defs><style>.cls-1{fill:#2496ed;}.cls-2{fill:#fff;}</style></defs><g id="Слой_2" data-name="Слой 2"><g id="Слой_1-2" data-name="Слой 1"><rect class="cls-1" width="90.32" height="32" rx="6.06"/><path class="cls-2" d="M44.91,22.5H42.27V17H37.13V22.5H34.49V9.7h2.64v5.19h5.14V9.7h2.64Z"/><path class="cls-2" d="M56.59,11.84H52.67V22.5H50V11.84H46.16V9.7H56.59Z"/><path class="cls-2" d="M61.54,9.7,64.82,19,68.09,9.7h3.46V22.5H68.91V19l.26-6L65.72,22.5H63.91L60.46,13l.27,6v3.5H58.09V9.7Z"/><path class="cls-2" d="M76.49,20.38h5.6V22.5H73.86V9.7h2.63Z"/><path class="cls-2" d="M6.22,4h21L25.31,25.56,16.7,28,8.14,25.56Zm7,9.75L13,11H23.08l.23-2.62H10.14l.69,8H20l-.33,3.43-2.91.8-2.95-.81-.19-2.11H11l.33,4.17,5.42,1.45,5.38-1.44.75-8.16Z"/></g></g></svg>