<svg xmlns="http://www.w3.org/2000/svg" viewBox="0 0 127.8 32"><defs><style>.cls-1{fill:#f7df1e;}</style></defs><g id="Слой_2" data-name="Слой 2"><g id="Слой_1-2" data-name="Слой 1"><rect class="cls-1" width="127.8" height="32" rx="6.06"/><path d="M40.65,9.7h2.64v8.86a4.28,4.28,0,0,1-.54,2.16,3.67,3.67,0,0,1-1.53,1.44,4.75,4.75,0,0,1-2.22.51,4.53,4.53,0,0,1-3.17-1,3.77,3.77,0,0,1-1.13-2.92h2.65a2.1,2.1,0,0,0,.4,1.39,1.57,1.57,0,0,0,1.25.44A1.52,1.52,0,0,0,40.2,20a2.2,2.2,0,0,0,.45-1.48Z"/><path d="M50.89,22.5a3,3,0,0,1-.26-.86,3,3,0,0,1-2.39,1,3.36,3.36,0,0,1-2.32-.81,2.58,2.58,0,0,1-.92-2,2.7,2.7,0,0,1,1.12-2.33,5.57,5.57,0,0,1,3.24-.81h1.17v-.55a1.53,1.53,0,0,0-.34-1.05,1.3,1.3,0,0,0-1.07-.4,1.48,1.48,0,0,0-1,.31,1,1,0,0,0-.37.84H45.21a2.56,2.56,0,0,1,.51-1.53,3.46,3.46,0,0,1,1.44-1.1,5.21,5.21,0,0,1,2.1-.4,4.2,4.2,0,0,1,2.79.88,3.13,3.13,0,0,1,1,2.49V20.3a4.45,4.45,0,0,0,.38,2.05v.15Zm-2.1-1.77a2.19,2.19,0,0,0,1-.25,1.68,1.68,0,0,0,.7-.67V18.17h-1c-1.27,0-1.95.44-2,1.32v.15a1,1,0,0,0,.34.78A1.26,1.26,0,0,0,48.79,20.73Z"/><path d="M58.46,19.39,60.22,13h2.66L59.67,22.5H57.24L54,13h2.65Z"/><path d="M69.37,22.5a3,3,0,0,1-.25-.86,3.07,3.07,0,0,1-2.4,1,3.38,3.38,0,0,1-2.32-.81,2.58,2.58,0,0,1-.92-2A2.72,2.72,0,0,1,64.6,17.5a5.57,5.57,0,0,1,3.24-.81H69v-.55a1.53,1.53,0,0,0-.34-1.05,1.3,1.3,0,0,0-1.06-.4,1.49,1.49,0,0,0-1,.31,1.06,1.06,0,0,0-.36.84H63.7a2.56,2.56,0,0,1,.51-1.53,3.46,3.46,0,0,1,1.44-1.1,5.19,5.19,0,0,1,2.09-.4,4.2,4.2,0,0,1,2.79.88,3.1,3.1,0,0,1,1,2.49V20.3a4.58,4.58,0,0,0,.38,2.05v.15Zm-2.1-1.77a2.16,2.16,0,0,0,1-.25,1.62,1.62,0,0,0,.7-.67V18.17h-1c-1.27,0-1.94.44-2,1.32v.15a1,1,0,0,0,.34.78A1.27,1.27,0,0,0,67.27,20.73Z"/><path d="M80.32,19.14A1.37,1.37,0,0,0,79.79,18a7,7,0,0,0-1.9-.84,13.54,13.54,0,0,1-2.17-.88,3.54,3.54,0,0,1-2.18-3.17,3.08,3.08,0,0,1,.58-1.85A3.87,3.87,0,0,1,75.8,10a6.42,6.42,0,0,1,2.46-.46,5.75,5.75,0,0,1,2.44.5,3.91,3.91,0,0,1,1.67,1.4A3.73,3.73,0,0,1,83,13.48H80.32a1.73,1.73,0,0,0-.55-1.37,2.3,2.3,0,0,0-1.55-.48,2.47,2.47,0,0,0-1.51.4,1.3,1.3,0,0,0-.53,1.08,1.22,1.22,0,0,0,.62,1.05,7.37,7.37,0,0,0,1.85.79,7.93,7.93,0,0,1,3.28,1.68,3.31,3.31,0,0,1,1,2.49,3.08,3.08,0,0,1-1.26,2.61,5.47,5.47,0,0,1-3.38.94,6.56,6.56,0,0,1-2.69-.54,4.25,4.25,0,0,1-1.85-1.48,3.83,3.83,0,0,1-.64-2.18h2.65c0,1.41.84,2.12,2.53,2.12a2.5,2.5,0,0,0,1.47-.38A1.26,1.26,0,0,0,80.32,19.14Z"/><path d="M88.53,20.63a1.69,1.69,0,0,0,1.15-.39,1.36,1.36,0,0,0,.45-1h2.38A3.27,3.27,0,0,1,92,21a3.52,3.52,0,0,1-1.42,1.25,4.54,4.54,0,0,1-2,.44,4.15,4.15,0,0,1-3.22-1.29,5.18,5.18,0,0,1-1.18-3.59v-.16a5.06,5.06,0,0,1,1.17-3.51,4.1,4.1,0,0,1,3.21-1.31,4,4,0,0,1,2.86,1,3.55,3.55,0,0,1,1.09,2.7H90.13a1.75,1.75,0,0,0-.45-1.21,1.53,1.53,0,0,0-1.16-.46,1.55,1.55,0,0,0-1.35.65,3.76,3.76,0,0,0-.45,2.1v.26A3.78,3.78,0,0,0,87.17,20,1.55,1.55,0,0,0,88.53,20.63Z"/><path d="M99.31,15.37a6.46,6.46,0,0,0-.92-.07,1.84,1.84,0,0,0-1.88,1V22.5H94V13h2.39l.07,1.13a2.36,2.36,0,0,1,2.12-1.31,2.52,2.52,0,0,1,.79.12Z"/><path d="M100.51,10.53a1.26,1.26,0,0,1,.38-.94,1.45,1.45,0,0,1,1-.37,1.4,1.4,0,0,1,1,.37,1.23,1.23,0,0,1,.39.94,1.27,1.27,0,0,1-.39,1,1.67,1.67,0,0,1-2.07,0A1.27,1.27,0,0,1,100.51,10.53Zm2.7,12h-2.55V13h2.55Z"/><path d="M113.86,17.83a5.74,5.74,0,0,1-1,3.52,3.22,3.22,0,0,1-2.7,1.32,3,3,0,0,1-2.33-1v4.48H105.3V13h2.36l.09.93a3,3,0,0,1,2.4-1.11,3.24,3.24,0,0,1,2.74,1.3,5.87,5.87,0,0,1,1,3.59Zm-2.54-.18a3.68,3.68,0,0,0-.47-2,1.53,1.53,0,0,0-1.36-.72,1.67,1.67,0,0,0-1.65.91v3.89a1.7,1.7,0,0,0,1.66.95C110.72,20.63,111.32,19.63,111.32,17.65Z"/><path d="M118.48,10.65V13h1.62v1.86h-1.62V19.6a1.14,1.14,0,0,0,.2.75,1,1,0,0,0,.77.23,4.22,4.22,0,0,0,.75-.06v1.92a5,5,0,0,1-1.54.23,2.42,2.42,0,0,1-2.72-2.7V14.85h-1.39V13h1.39V10.65Z"/><path d="M6.73,5.37H28.29V26.63H6.73ZM26.52,21.56c-.15-1-.8-1.79-2.7-2.55-.66-.3-1.39-.51-1.61-1a1.05,1.05,0,0,1,0-.62,1,1,0,0,1,1.36-.58,1.46,1.46,0,0,1,.88.79c.93-.6.93-.6,1.57-1a3.22,3.22,0,0,0-.52-.69A3,3,0,0,0,22.91,15l-.63.08a2.84,2.84,0,0,0-1.54.89,2.76,2.76,0,0,0,.51,4c1.23.9,3,1.1,3.25,1.95.22,1-.78,1.37-1.77,1.25a2.37,2.37,0,0,1-1.57-1.18l-1.65.93a3.73,3.73,0,0,0,.73,1c1.56,1.56,5.47,1.48,6.17-.89a2.86,2.86,0,0,0,.07-1.46Zm-8.07-6.42h-2c0,1.72,0,3.42,0,5.14a8.38,8.38,0,0,1-.12,2.41c-.3.61-1.06.53-1.41.42a1.7,1.7,0,0,1-.74-.76c-.06-.09-.1-.17-.12-.17l-1.64,1a3.29,3.29,0,0,0,1.19,1.34,4,4,0,0,0,2.88.36,2.51,2.51,0,0,0,1.63-1.25,6.09,6.09,0,0,0,.36-3c0-1.81,0-3.64,0-5.47Z"/></g></g></svg>