<svg xmlns="http://www.w3.org/2000/svg" viewBox="0 0 90.44 32"><defs><style>.cls-1{fill:#0095d5;}.cls-2{fill:#fff;}</style></defs><g id="Слой_2" data-name="Слой 2"><g id="Слой_1-2" data-name="Слой 1"><rect class="cls-1" width="90.44" height="32" rx="6.06"/><path class="cls-2" d="M39.5,17.36l-1.37,1.48V22.5H35.49V9.7h2.64v5.8l1.16-1.59L42.55,9.7h3.24l-4.54,5.69,4.67,7.11H42.79Z"/><path class="cls-2" d="M46.12,17.65a5.69,5.69,0,0,1,.54-2.52,4,4,0,0,1,1.57-1.71,4.53,4.53,0,0,1,2.38-.61A4.31,4.31,0,0,1,53.75,14a4.75,4.75,0,0,1,1.36,3.2l0,.65a4.94,4.94,0,0,1-1.23,3.51,4.23,4.23,0,0,1-3.27,1.32,4.27,4.27,0,0,1-3.29-1.32,5.06,5.06,0,0,1-1.22-3.58Zm2.54.18a3.57,3.57,0,0,0,.51,2.08,1.67,1.67,0,0,0,1.46.71,1.69,1.69,0,0,0,1.44-.7,4,4,0,0,0,.52-2.27,3.56,3.56,0,0,0-.52-2.06,1.69,1.69,0,0,0-1.46-.73,1.65,1.65,0,0,0-1.44.73A3.92,3.92,0,0,0,48.66,17.83Z"/><path class="cls-2" d="M59.73,10.65V13h1.63v1.86H59.73V19.6a1.14,1.14,0,0,0,.2.75,1.05,1.05,0,0,0,.78.23,4,4,0,0,0,.74-.06v1.92a4.94,4.94,0,0,1-1.53.23A2.43,2.43,0,0,1,57.19,20V14.85H55.8V13h1.39V10.65Z"/><path class="cls-2" d="M65.45,22.5H62.9V9h2.55Z"/><path class="cls-2" d="M67.53,10.53a1.22,1.22,0,0,1,.38-.94,1.41,1.41,0,0,1,1-.37,1.42,1.42,0,0,1,1,.37,1.23,1.23,0,0,1,.39.94,1.28,1.28,0,0,1-.4,1,1.65,1.65,0,0,1-2.06,0A1.27,1.27,0,0,1,67.53,10.53Zm2.7,12H67.68V13h2.55Z"/><path class="cls-2" d="M74.65,13l.08,1.1a3.33,3.33,0,0,1,2.74-1.28,2.76,2.76,0,0,1,2.25.89,4.14,4.14,0,0,1,.75,2.65V22.5H77.93V16.41a1.62,1.62,0,0,0-.35-1.17,1.58,1.58,0,0,0-1.17-.36,1.73,1.73,0,0,0-1.6.91V22.5H72.26V13Z"/><path class="cls-2" d="M7.39,26.48l9.87-10,10,10Zm-1.14-21H16.74L6.25,16.44ZM18,5.52,6.25,17.75v8.73L16.74,16,27.22,5.52Z"/></g></g></svg>