<svg xmlns="http://www.w3.org/2000/svg" viewBox="0 0 136 32"><defs><style>.cls-1{fill:#326ce5;}.cls-2{fill:#fff;}</style></defs><g id="Слой_2" data-name="Слой 2"><g id="Слой_1-2" data-name="Слой 1"><rect class="cls-1" width="136" height="32" rx="6.06"/><path class="cls-2" d="M40.5,17.36l-1.37,1.48V22.5H36.49V9.7h2.64v5.8l1.16-1.59L43.55,9.7h3.24l-4.54,5.69,4.67,7.11H43.79Z"/><path class="cls-2" d="M53.24,21.53a3.17,3.17,0,0,1-2.6,1.14,3,3,0,0,1-2.33-.88,3.7,3.7,0,0,1-.82-2.57V13H50v6.15c0,1,.45,1.49,1.35,1.49a1.85,1.85,0,0,0,1.78-.9V13H55.7V22.5H53.31Z"/><path class="cls-2" d="M66.19,17.83a5.75,5.75,0,0,1-1,3.56,3.2,3.2,0,0,1-2.72,1.28A3,3,0,0,1,60,21.49l-.11,1H57.62V9h2.54v4.84a2.89,2.89,0,0,1,2.31-1,3.27,3.27,0,0,1,2.73,1.28,5.75,5.75,0,0,1,1,3.6Zm-2.54-.18a3.73,3.73,0,0,0-.46-2.11,1.54,1.54,0,0,0-1.36-.66,1.67,1.67,0,0,0-1.67,1v3.75a1.7,1.7,0,0,0,1.69,1,1.56,1.56,0,0,0,1.61-1.22A5.9,5.9,0,0,0,63.65,17.65Z"/><path class="cls-2" d="M72.13,22.67a4.63,4.63,0,0,1-3.4-1.28A4.57,4.57,0,0,1,67.41,18v-.25A5.9,5.9,0,0,1,68,15.16a4.15,4.15,0,0,1,1.57-1.74,4.49,4.49,0,0,1,2.32-.61A4,4,0,0,1,74.92,14,5,5,0,0,1,76,17.53v1H70a2.34,2.34,0,0,0,.74,1.49,2.23,2.23,0,0,0,1.57.57,2.73,2.73,0,0,0,2.29-1.07L75.84,21a3.8,3.8,0,0,1-1.55,1.26A5.09,5.09,0,0,1,72.13,22.67Zm-.29-7.81a1.61,1.61,0,0,0-1.23.51,2.69,2.69,0,0,0-.6,1.47h3.54v-.21a2,2,0,0,0-.46-1.31A1.63,1.63,0,0,0,71.84,14.86Z"/><path class="cls-2" d="M82.83,15.37a6.46,6.46,0,0,0-.92-.07,1.86,1.86,0,0,0-1.89,1V22.5H77.48V13h2.4L80,14.12a2.36,2.36,0,0,1,2.12-1.31,2.52,2.52,0,0,1,.79.12Z"/><path class="cls-2" d="M86.39,13l.08,1.1a3.32,3.32,0,0,1,2.73-1.28,2.76,2.76,0,0,1,2.25.89,4.2,4.2,0,0,1,.76,2.65V22.5H89.67V16.42a1.63,1.63,0,0,0-.36-1.18,1.58,1.58,0,0,0-1.17-.36,1.73,1.73,0,0,0-1.6.91V22.5H84V13Z"/><path class="cls-2" d="M98.51,22.67a4.66,4.66,0,0,1-3.41-1.28A4.6,4.6,0,0,1,93.79,18v-.25a5.76,5.76,0,0,1,.55-2.56,4.08,4.08,0,0,1,1.57-1.74,4.49,4.49,0,0,1,2.32-.61A4,4,0,0,1,101.3,14a5,5,0,0,1,1.12,3.49v1H96.36a2.34,2.34,0,0,0,.74,1.49,2.25,2.25,0,0,0,1.57.57,2.75,2.75,0,0,0,2.3-1.07l1.25,1.4a3.86,3.86,0,0,1-1.55,1.26A5.09,5.09,0,0,1,98.51,22.67Zm-.29-7.81a1.58,1.58,0,0,0-1.23.51,2.69,2.69,0,0,0-.6,1.47h3.53v-.21a1.86,1.86,0,0,0-.46-1.31A1.61,1.61,0,0,0,98.22,14.86Z"/><path class="cls-2" d="M106.9,10.65V13h1.63v1.86H106.9V19.6a1.14,1.14,0,0,0,.2.75,1.05,1.05,0,0,0,.78.23,4,4,0,0,0,.74-.06v1.92a5,5,0,0,1-1.54.23,2.43,2.43,0,0,1-2.72-2.7V14.85H103V13h1.39V10.65Z"/><path class="cls-2" d="M114.32,22.67a4.66,4.66,0,0,1-3.41-1.28A4.6,4.6,0,0,1,109.6,18v-.25a5.76,5.76,0,0,1,.55-2.56,4.08,4.08,0,0,1,1.57-1.74,4.49,4.49,0,0,1,2.32-.61A4,4,0,0,1,117.11,14a5,5,0,0,1,1.12,3.49v1h-6.06a2.35,2.35,0,0,0,.75,1.49,2.21,2.21,0,0,0,1.57.57,2.75,2.75,0,0,0,2.29-1.07L118,21a3.8,3.8,0,0,1-1.55,1.26A5.09,5.09,0,0,1,114.32,22.67ZM114,14.86a1.6,1.6,0,0,0-1.23.51,2.69,2.69,0,0,0-.6,1.47h3.53v-.21a1.9,1.9,0,0,0-.45-1.31A1.65,1.65,0,0,0,114,14.86Z"/><path class="cls-2" d="M124.82,19.87a.8.8,0,0,0-.46-.73,5.19,5.19,0,0,0-1.48-.48q-3.39-.72-3.39-2.89a2.62,2.62,0,0,1,1.05-2.11,4.19,4.19,0,0,1,2.74-.85,4.61,4.61,0,0,1,2.9.85,2.7,2.7,0,0,1,1.08,2.22h-2.54a1.21,1.21,0,0,0-.35-.9,1.47,1.47,0,0,0-1.1-.36,1.56,1.56,0,0,0-1,.29.94.94,0,0,0-.35.74.77.77,0,0,0,.4.68,4.34,4.34,0,0,0,1.35.45,11.63,11.63,0,0,1,1.6.43,2.62,2.62,0,0,1,2,2.55,2.48,2.48,0,0,1-1.12,2.11,4.83,4.83,0,0,1-2.88.8,5.11,5.11,0,0,1-2.12-.42,3.72,3.72,0,0,1-1.46-1.17,2.73,2.73,0,0,1-.52-1.61h2.41a1.32,1.32,0,0,0,.5,1,2,2,0,0,0,1.24.36,1.82,1.82,0,0,0,1.11-.28A.84.84,0,0,0,124.82,19.87Z"/><path class="cls-2" d="M15.43,17.82h0l-1,2.42a5.22,5.22,0,0,1-2.08-2.6l2.58-.44h0a.44.44,0,0,1,.52.35.54.54,0,0,1,0,.25Zm-.83-2.13a.43.43,0,0,0,.3-.54.42.42,0,0,0-.13-.21h0l-2-1.76a5.12,5.12,0,0,0-.73,3.26l2.51-.73Zm1.14-2a.45.45,0,0,0,.62-.09.43.43,0,0,0,.08-.24h0l.15-2.62a5.11,5.11,0,0,0-3,1.44l2.15,1.53Zm.76,2.75.72.35.73-.34.18-.78-.5-.63h-.81l-.5.63.18.77ZM18,13.37a.44.44,0,0,0,.46.42.36.36,0,0,0,.24-.09h0l2.13-1.52a5.2,5.2,0,0,0-3-1.44L18,13.37Zm10.88,6L23.1,26.52a1.57,1.57,0,0,1-1.24.59H12.59a1.58,1.58,0,0,1-1.24-.6L5.57,19.34A1.61,1.61,0,0,1,5.26,18L7.32,9.05A1.6,1.6,0,0,1,8.19,8l8.34-4a1.59,1.59,0,0,1,1.38,0l8.35,4A1.57,1.57,0,0,1,27.12,9l2.06,9A1.58,1.58,0,0,1,28.88,19.34Zm-3.29-2.06-.15,0a2.59,2.59,0,0,0-.48,0,5,5,0,0,1-.89-.15.56.56,0,0,1-.22-.21l-.2-.06a6.42,6.42,0,0,0-1-4.5l.18-.16a.41.41,0,0,1,.09-.28,5.26,5.26,0,0,1,.74-.52c.15-.09.28-.14.42-.24l.11-.09a.5.5,0,1,0-.62-.78l-.11.08a3.53,3.53,0,0,0-.33.35,4.54,4.54,0,0,1-.68.61.56.56,0,0,1-.3,0l-.19.13a6.51,6.51,0,0,0-4.15-2V9.21A.45.45,0,0,1,17.6,9a4.28,4.28,0,0,1,.06-.91,3.55,3.55,0,0,0,.06-.47.75.75,0,0,0,0-.15.53.53,0,0,0-.5-.55.53.53,0,0,0-.5.55v0a.57.57,0,0,0,0,.13,3.55,3.55,0,0,0,.06.47,5.06,5.06,0,0,1,.06.91.54.54,0,0,1-.16.25l0,.22a6.39,6.39,0,0,0-4.16,2l-.18-.13a.41.41,0,0,1-.3,0,4.52,4.52,0,0,1-.67-.61c-.11-.12-.2-.23-.33-.35l-.11-.08a.64.64,0,0,0-.35-.14.52.52,0,0,0-.4.18.54.54,0,0,0,.13.74h0l.11.09c.14.1.27.15.41.24a4.3,4.3,0,0,1,.74.52.53.53,0,0,1,.1.29l.16.14a6.53,6.53,0,0,0-1,4.51l-.2.06c-.06.07-.14.18-.22.21a5.14,5.14,0,0,1-.89.15,3.88,3.88,0,0,0-.48,0l-.14,0h0a.54.54,0,0,0-.42.61.53.53,0,0,0,.64.37h0l.13,0a3.47,3.47,0,0,0,.45-.17,3.9,3.9,0,0,1,.87-.25.5.5,0,0,1,.29.1l.21,0a6.55,6.55,0,0,0,2.88,3.6l-.09.21a.5.5,0,0,1,.05.29,5.38,5.38,0,0,1-.46.81,3.07,3.07,0,0,0-.26.4l-.07.13a.53.53,0,0,0,.22.71.54.54,0,0,0,.69-.28h0l.06-.13a4,4,0,0,0,.14-.46,3.35,3.35,0,0,1,.39-.89.39.39,0,0,1,.21-.11l.12-.2a6.48,6.48,0,0,0,4.61,0l.1.19a.42.42,0,0,1,.26.15,5.22,5.22,0,0,1,.34.84,4,4,0,0,0,.14.46l.07.13a.52.52,0,0,0,.69.28.53.53,0,0,0,.21-.71l-.07-.13a3.94,3.94,0,0,0-.26-.4,5.14,5.14,0,0,1-.45-.79.42.42,0,0,1,0-.3,1,1,0,0,1-.08-.2,6.48,6.48,0,0,0,2.88-3.62l.21,0a.42.42,0,0,1,.28-.11,4.61,4.61,0,0,1,.87.26,3.47,3.47,0,0,0,.45.17l.13,0h0a.52.52,0,0,0,.64-.36A.53.53,0,0,0,25.59,17.28Zm-4-4.11-1.95,1.75h0a.45.45,0,0,0,0,.63.45.45,0,0,0,.22.13h0l2.53.73a5.49,5.49,0,0,0-.11-1.67,5.33,5.33,0,0,0-.65-1.58Zm-4,5.33a.42.42,0,0,0-.4-.23.41.41,0,0,0-.37.23h0l-1.26,2.29a5.1,5.1,0,0,0,3.32,0L17.62,18.5Zm1.89-1.29a.42.42,0,0,0-.27,0,.44.44,0,0,0-.21.57h0l1,2.44a5.13,5.13,0,0,0,2.08-2.62l-2.6-.44Z"/></g></g></svg>