<svg xmlns="http://www.w3.org/2000/svg" viewBox="0 0 111.07 32"><defs><style>.cls-1{fill:#47a248;}.cls-2{fill:#fff;}</style></defs><g id="Слой_2" data-name="Слой 2"><g id="Слой_1-2" data-name="Слой 1"><rect class="cls-1" width="111.07" height="32" rx="6.06"/><path class="cls-2" d="M28.56,9.7,31.85,19,35.12,9.7h3.46V22.5H35.94V19l.26-6L32.75,22.5H30.94L27.49,13l.27,6v3.5H25.12V9.7Z"/><path class="cls-2" d="M40.32,17.65a5.69,5.69,0,0,1,.55-2.52,3.89,3.89,0,0,1,1.57-1.71,4.5,4.5,0,0,1,2.37-.61A4.32,4.32,0,0,1,48,14a4.7,4.7,0,0,1,1.35,3.2l0,.65a4.94,4.94,0,0,1-1.22,3.51,4.74,4.74,0,0,1-6.56,0,5,5,0,0,1-1.23-3.58Zm2.54.18a3.57,3.57,0,0,0,.51,2.08,1.84,1.84,0,0,0,2.9,0,3.88,3.88,0,0,0,.52-2.27,3.49,3.49,0,0,0-.52-2.06,1.67,1.67,0,0,0-1.46-.73,1.65,1.65,0,0,0-1.44.73A3.92,3.92,0,0,0,42.86,17.83Z"/><path class="cls-2" d="M53.23,13l.08,1.1a3.33,3.33,0,0,1,2.74-1.28,2.76,2.76,0,0,1,2.25.89,4.14,4.14,0,0,1,.75,2.65V22.5H56.51V16.41a1.64,1.64,0,0,0-.35-1.17A1.58,1.58,0,0,0,55,14.88a1.75,1.75,0,0,0-1.61.91V22.5H50.84V13Z"/><path class="cls-2" d="M60.61,17.67a5.58,5.58,0,0,1,1-3.52,3.37,3.37,0,0,1,2.81-1.34,3,3,0,0,1,2.43,1.07L67,13h2.3v9.19a4,4,0,0,1-.57,2.17,3.58,3.58,0,0,1-1.59,1.41,5.66,5.66,0,0,1-2.41.48,5.17,5.17,0,0,1-2-.42,3.54,3.54,0,0,1-1.5-1.07l1.12-1.55a3,3,0,0,0,2.31,1.06,2.19,2.19,0,0,0,1.57-.54,2,2,0,0,0,.56-1.53v-.51a2.92,2.92,0,0,1-2.31,1,3.34,3.34,0,0,1-2.77-1.34,5.54,5.54,0,0,1-1.06-3.55Zm2.54.19a3.45,3.45,0,0,0,.52,2,1.64,1.64,0,0,0,1.42.73,1.76,1.76,0,0,0,1.66-.87v-4a1.76,1.76,0,0,0-1.64-.87,1.66,1.66,0,0,0-1.44.75A3.87,3.87,0,0,0,63.15,17.86Z"/><path class="cls-2" d="M70.86,17.65a5.69,5.69,0,0,1,.54-2.52A4,4,0,0,1,73,13.42a4.53,4.53,0,0,1,2.38-.61A4.31,4.31,0,0,1,78.49,14a4.75,4.75,0,0,1,1.36,3.2l0,.65a4.94,4.94,0,0,1-1.23,3.51,4.23,4.23,0,0,1-3.27,1.32,4.27,4.27,0,0,1-3.29-1.32,5.06,5.06,0,0,1-1.22-3.58Zm2.54.18a3.57,3.57,0,0,0,.51,2.08,1.67,1.67,0,0,0,1.46.71,1.69,1.69,0,0,0,1.44-.7,4,4,0,0,0,.52-2.27,3.56,3.56,0,0,0-.52-2.06,1.68,1.68,0,0,0-1.46-.73,1.65,1.65,0,0,0-1.44.73A3.92,3.92,0,0,0,73.4,17.83Z"/><path class="cls-2" d="M81.6,22.5V9.7h3.93a5.92,5.92,0,0,1,3,.76,5.34,5.34,0,0,1,2.08,2.16,6.68,6.68,0,0,1,.75,3.19v.59a6.8,6.8,0,0,1-.73,3.17,5.23,5.23,0,0,1-2.07,2.15,6.09,6.09,0,0,1-3,.78Zm2.63-10.66v8.54h1.28a2.86,2.86,0,0,0,2.36-1,4.54,4.54,0,0,0,.84-2.89V15.8a4.64,4.64,0,0,0-.81-3,2.86,2.86,0,0,0-2.37-1Z"/><path class="cls-2" d="M93.3,22.5V9.7h4.48a5.91,5.91,0,0,1,3.53.89,3.08,3.08,0,0,1,1.21,2.62,2.89,2.89,0,0,1-.49,1.65,2.76,2.76,0,0,1-1.34,1.05,2.76,2.76,0,0,1,1.55,1,2.9,2.9,0,0,1,.57,1.83,3.38,3.38,0,0,1-1.18,2.79,5.33,5.33,0,0,1-3.36,1Zm2.63-7.44h1.95c1.33,0,2-.55,2-1.59a1.45,1.45,0,0,0-.51-1.25,2.6,2.6,0,0,0-1.59-.38H95.93Zm0,1.86v3.46h2.26a2.23,2.23,0,0,0,1.46-.44,1.56,1.56,0,0,0,.52-1.23,1.61,1.61,0,0,0-1.82-1.79Z"/><path class="cls-2" d="M16.87,13.52C15.6,8,12.62,6.13,12.3,5.43A8.93,8.93,0,0,1,11.57,4v0h0v.06h0v0h0v0h0v0h0v0h0v0h0v0h0v0h0v0h0v0h0v0h0v0h0v0h0v0h0v0h-.13v0h-.26v0h0l0,0s0,0,0,0h0l-.05,0h0l-.07.06h0l-.19.16h0q-.25.23-.6.57h0a13.72,13.72,0,0,0-3.73,9.07,11,11,0,0,0,0,1.15h0a10.93,10.93,0,0,0,1.43,4.75h0a11.88,11.88,0,0,0,.93,1.41h0A12.94,12.94,0,0,0,11.19,25a8.33,8.33,0,0,1,.4,2.77l.64.22a11.72,11.72,0,0,1,.06-2.52,1.41,1.41,0,0,1,.35-.66c.1-.08.42-.31.79-.65l.05-.05A11.44,11.44,0,0,0,16.87,13.52Z"/></g></g></svg>