<svg xmlns="http://www.w3.org/2000/svg" viewBox="0 0 103.42 32"><defs><style>.cls-1{fill:#393;}.cls-2{fill:#fff;}</style></defs><g id="Слой_2" data-name="Слой 2"><g id="Слой_1-2" data-name="Слой 1"><rect class="cls-1" width="103.42" height="32" rx="6.06"/><path class="cls-2" d="M44.9,22.5H42.26l-5.13-8.42V22.5H34.49V9.7h2.64l5.14,8.44V9.7H44.9Z"/><path class="cls-2" d="M46.64,17.65a5.69,5.69,0,0,1,.54-2.52,4,4,0,0,1,1.57-1.71,4.53,4.53,0,0,1,2.38-.61A4.31,4.31,0,0,1,54.27,14a4.7,4.7,0,0,1,1.36,3.2l0,.65a5,5,0,0,1-1.22,3.51,4.75,4.75,0,0,1-6.57,0,5.06,5.06,0,0,1-1.22-3.58Zm2.54.18a3.57,3.57,0,0,0,.51,2.08,1.67,1.67,0,0,0,1.46.71,1.69,1.69,0,0,0,1.44-.7,4,4,0,0,0,.52-2.27,3.56,3.56,0,0,0-.52-2.06,1.68,1.68,0,0,0-1.46-.73,1.65,1.65,0,0,0-1.44.73A3.92,3.92,0,0,0,49.18,17.83Z"/><path class="cls-2" d="M56.82,17.67a5.76,5.76,0,0,1,1-3.54,3.25,3.25,0,0,1,2.73-1.32,2.94,2.94,0,0,1,2.3,1V9h2.55V22.5h-2.3l-.12-1a3,3,0,0,1-2.45,1.18,3.24,3.24,0,0,1-2.69-1.32A5.9,5.9,0,0,1,56.82,17.67Zm2.54.19a3.75,3.75,0,0,0,.46,2.05,1.51,1.51,0,0,0,1.36.71,1.71,1.71,0,0,0,1.66-1V15.87a1.69,1.69,0,0,0-1.65-1C60,14.88,59.36,15.87,59.36,17.86Z"/><path class="cls-2" d="M71.73,22.67a4.71,4.71,0,0,1-3.41-1.28A4.6,4.6,0,0,1,67,18v-.25a5.9,5.9,0,0,1,.55-2.56,4.15,4.15,0,0,1,1.57-1.74,4.49,4.49,0,0,1,2.32-.61A4,4,0,0,1,74.52,14a5,5,0,0,1,1.12,3.49v1h-6a2.34,2.34,0,0,0,.74,1.49,2.21,2.21,0,0,0,1.57.56,2.73,2.73,0,0,0,2.29-1.06L75.44,21a3.8,3.8,0,0,1-1.55,1.26A5.09,5.09,0,0,1,71.73,22.67Zm-.29-7.81a1.61,1.61,0,0,0-1.23.51,2.69,2.69,0,0,0-.6,1.47h3.54v-.21a2,2,0,0,0-.46-1.31A1.63,1.63,0,0,0,71.44,14.86Z"/><path class="cls-2" d="M77.22,21.25a1.3,1.3,0,0,1,.4-1,1.48,1.48,0,0,1,1-.37,1.46,1.46,0,0,1,1,.37,1.3,1.3,0,0,1,.41,1,1.26,1.26,0,0,1-.41,1,1.43,1.43,0,0,1-1,.37,1.45,1.45,0,0,1-1-.37A1.25,1.25,0,0,1,77.22,21.25Z"/><path class="cls-2" d="M85,13V23a3.42,3.42,0,0,1-.83,2.44,3.16,3.16,0,0,1-2.41.88,5.18,5.18,0,0,1-1.26-.15v-2a5,5,0,0,0,.8.07c.77,0,1.15-.4,1.15-1.22V13Zm-2.75-2.46a1.26,1.26,0,0,1,.38-.94,1.66,1.66,0,0,1,2.09,0,1.35,1.35,0,0,1,0,1.89,1.67,1.67,0,0,1-2.07,0A1.27,1.27,0,0,1,82.25,10.53Z"/><path class="cls-2" d="M92.14,19.87a.82.82,0,0,0-.46-.73,5.19,5.19,0,0,0-1.48-.48q-3.4-.72-3.4-2.89a2.62,2.62,0,0,1,1-2.11,4.22,4.22,0,0,1,2.75-.85,4.63,4.63,0,0,1,2.9.85,2.7,2.7,0,0,1,1.08,2.22H92a1.21,1.21,0,0,0-.35-.9,1.47,1.47,0,0,0-1.1-.36,1.52,1.52,0,0,0-1,.29.9.9,0,0,0-.35.74.77.77,0,0,0,.4.68,4.16,4.16,0,0,0,1.35.45,11.63,11.63,0,0,1,1.6.43,2.62,2.62,0,0,1,2,2.55,2.48,2.48,0,0,1-1.12,2.11,4.83,4.83,0,0,1-2.88.8,5,5,0,0,1-2.12-.42A3.65,3.65,0,0,1,87,21.08a2.73,2.73,0,0,1-.52-1.61h2.4a1.35,1.35,0,0,0,.5,1,2,2,0,0,0,1.25.36,1.77,1.77,0,0,0,1.1-.28A.85.85,0,0,0,92.14,19.87Z"/><path class="cls-2" d="M16.21,28a1.77,1.77,0,0,1-.92-.25L12.36,26c-.44-.25-.23-.34-.08-.39A5.85,5.85,0,0,0,13.6,25a.22.22,0,0,1,.22,0l2.26,1.34a.32.32,0,0,0,.27,0l8.8-5.08a.28.28,0,0,0,.13-.24V10.92a.27.27,0,0,0-.14-.24L16.35,5.61a.26.26,0,0,0-.27,0L7.29,10.68a.3.3,0,0,0-.14.24V21.07a.29.29,0,0,0,.14.24L9.7,22.7c1.31.65,2.11-.12,2.11-.89v-10a.26.26,0,0,1,.25-.26h1.12a.26.26,0,0,1,.25.26v10a2.43,2.43,0,0,1-2.6,2.74,3.78,3.78,0,0,1-2-.55L6.5,22.68a1.87,1.87,0,0,1-.93-1.61V10.92a1.86,1.86,0,0,1,.93-1.6l8.79-5.08a1.9,1.9,0,0,1,1.85,0l8.79,5.08a1.86,1.86,0,0,1,.93,1.6V21.07a1.89,1.89,0,0,1-.93,1.61l-8.79,5.07A1.78,1.78,0,0,1,16.21,28Zm7.11-10c0-1.9-1.29-2.4-4-2.76s-3-.55-3-1.19.23-1.23,2.26-1.23c1.8,0,2.47.39,2.74,1.61a.27.27,0,0,0,.25.2h1.14a.27.27,0,0,0,.19-.08.31.31,0,0,0,.07-.2c-.18-2.1-1.58-3.08-4.39-3.08-2.51,0-4,1.06-4,2.84s1.49,2.45,3.9,2.69c2.88.28,3.1.7,3.1,1.27,0,1-.79,1.4-2.64,1.4-2.33,0-2.84-.58-3-1.74a.26.26,0,0,0-.25-.21H14.53a.26.26,0,0,0-.26.25c0,1.48.81,3.25,4.66,3.25C21.72,21,23.32,19.91,23.32,18Z"/></g></g></svg>