<svg xmlns="http://www.w3.org/2000/svg" viewBox="0 0 87.47 32"><defs><style>.cls-1{fill:#cb3837;}.cls-2{fill:#fff;}</style></defs><g id="Слой_2" data-name="Слой 2"><g id="Слой_1-2" data-name="Слой 1"><rect class="cls-1" width="87.47" height="32" rx="6.06"/><path class="cls-2" d="M50.9,22.5H48.26l-5.13-8.42V22.5H40.49V9.7h2.64l5.14,8.44V9.7H50.9Z"/><path class="cls-2" d="M55.84,18V22.5H53.2V9.7h5a5.82,5.82,0,0,1,2.54.53,3.84,3.84,0,0,1,1.68,1.5A4.17,4.17,0,0,1,63,13.94a3.66,3.66,0,0,1-1.29,3A5.32,5.32,0,0,1,58.15,18Zm0-2.14h2.35a2.32,2.32,0,0,0,1.6-.49A1.82,1.82,0,0,0,60.34,14a2.13,2.13,0,0,0-.56-1.52,2.09,2.09,0,0,0-1.53-.59H55.84Z"/><path class="cls-2" d="M68.26,9.7,71.54,19,74.81,9.7h3.47V22.5H75.63V19l.26-6L72.44,22.5H70.63L67.18,13l.27,6v3.5H64.81V9.7Z"/><path class="cls-2" d="M8.46,11.33v8h6.67v1.34h5.33V19.33h12v-8ZM15.13,18H13.8V14H12.46v4H9.8V12.67h5.33Zm4,0v1.33H16.46V12.67H21.8V18Zm12,0H29.8V14H28.46v4H27.13V14H25.8v4H23.13V12.67h8Zm-12-4h1.33v2.67H19.13Z"/></g></g></svg>