<svg xmlns="http://www.w3.org/2000/svg" viewBox="0 0 114.91 32"><defs><style>.cls-1{fill:#6ba539;}.cls-2{fill:#fff;}</style></defs><g id="Слой_2" data-name="Слой 2"><g id="Слой_1-2" data-name="Слой 1"><rect class="cls-1" width="114.91" height="32" rx="6.06"/><path class="cls-2" d="M47,16.39a7.64,7.64,0,0,1-.67,3.31,5,5,0,0,1-1.91,2.2,5.25,5.25,0,0,1-2.85.77,5.32,5.32,0,0,1-2.84-.76,5.1,5.1,0,0,1-1.93-2.19,7.48,7.48,0,0,1-.7-3.26v-.63a7.62,7.62,0,0,1,.69-3.33,5.07,5.07,0,0,1,1.92-2.21,5.64,5.64,0,0,1,5.69,0,5.07,5.07,0,0,1,1.92,2.21A7.58,7.58,0,0,1,47,15.82Zm-2.67-.58a5.4,5.4,0,0,0-.72-3.06,2.53,2.53,0,0,0-4.1,0,5.26,5.26,0,0,0-.73,3v.63a5.44,5.44,0,0,0,.72,3,2.52,2.52,0,0,0,4.11,0,5.44,5.44,0,0,0,.72-3Z"/><path class="cls-2" d="M57.31,17.83a5.68,5.68,0,0,1-1,3.52,3.19,3.19,0,0,1-2.69,1.32,3,3,0,0,1-2.33-1v4.48H48.75V13h2.36l.09.93a3,3,0,0,1,2.4-1.11,3.24,3.24,0,0,1,2.74,1.3,5.87,5.87,0,0,1,1,3.59Zm-2.54-.18a3.68,3.68,0,0,0-.47-2,1.53,1.53,0,0,0-1.36-.72,1.67,1.67,0,0,0-1.65.91v3.89a1.7,1.7,0,0,0,1.66.95C54.17,20.63,54.77,19.63,54.77,17.65Z"/><path class="cls-2" d="M63.26,22.67a4.63,4.63,0,0,1-3.4-1.28A4.57,4.57,0,0,1,58.54,18v-.25a5.76,5.76,0,0,1,.56-2.56,4.08,4.08,0,0,1,1.57-1.74A4.42,4.42,0,0,1,63,12.81,3.93,3.93,0,0,1,66.05,14a5,5,0,0,1,1.12,3.49v1H61.12a2.34,2.34,0,0,0,.74,1.49,2.23,2.23,0,0,0,1.57.57,2.73,2.73,0,0,0,2.29-1.07L67,21a3.73,3.73,0,0,1-1.55,1.26A5.09,5.09,0,0,1,63.26,22.67ZM63,14.86a1.58,1.58,0,0,0-1.22.51,2.62,2.62,0,0,0-.61,1.47h3.54v-.21a1.91,1.91,0,0,0-.46-1.31A1.63,1.63,0,0,0,63,14.86Z"/><path class="cls-2" d="M71,13l.08,1.1a3.33,3.33,0,0,1,2.74-1.28A2.79,2.79,0,0,1,76,13.7a4.14,4.14,0,0,1,.75,2.65V22.5H74.23V16.42a1.68,1.68,0,0,0-.35-1.18,1.58,1.58,0,0,0-1.17-.36,1.75,1.75,0,0,0-1.61.91V22.5H68.56V13Z"/><path class="cls-2" d="M86.09,19.86H81.46l-.87,2.64H77.78L82.55,9.7H85l4.79,12.8H87Zm-3.91-2.14h3.2l-1.61-4.79Z"/><path class="cls-2" d="M93.61,18V22.5H91V9.7h5a5.78,5.78,0,0,1,2.53.53,3.92,3.92,0,0,1,1.69,1.5,4.17,4.17,0,0,1,.58,2.21,3.65,3.65,0,0,1-1.28,3A5.35,5.35,0,0,1,95.92,18Zm0-2.14H96a2.29,2.29,0,0,0,1.59-.49A1.79,1.79,0,0,0,98.11,14a2.12,2.12,0,0,0-.55-1.52A2.09,2.09,0,0,0,96,11.84H93.61Z"/><path class="cls-2" d="M105.39,22.5h-2.64V9.7h2.64Z"/><path class="cls-2" d="M12,17.24H5.25v.64l0,.24v0l0,.26A12.17,12.17,0,0,0,5.7,20h0l.08.26h0l.07.22,0,.06.07.19,0,.09.07.16,0,.11.06.13.06.15,0,.09.09.18,0,.06.1.2v0l.13.23,0,.05,5.77-3.48A5,5,0,0,1,12,17.24ZM5.56,20.33h0l.21-.07Z"/><path class="cls-2" d="M13.64,20.34,8.88,25.1l.07.07.2.18.16.13,0,0,.18.15,0,0,.2.16h0l.89.6,0,0,.17.1.11.06.1.06.19.1,0,0,.53.25,2.56-6.23a4.52,4.52,0,0,1-.74-.49Z"/><path class="cls-2" d="M13.15,19.86,13,19.69l-.13-.16-.13-.19-.12-.19L6.86,22.62l.29.47,0,0h0l.31.43h0l.14.18.17.21,0,.05.13.16.07.07.11.13.07.08,0,0,.09.1,0,0,.16.17L13.3,20l-.15-.16Z"/><path class="cls-2" d="M19.45,20.33l-.16.13v0l3.46,5.75.48-.33a10.28,10.28,0,0,0,1-.8l-4.75-4.75Z"/><path class="cls-2" d="M22.33,26.5Zm0,0Z"/><path class="cls-2" d="M22.33,26.5l.05,0h0l-.05,0Zm0,0h0Z"/><path class="cls-2" d="M22.32,26.51h0v0Zm0,0Zm0,0Z"/><path class="cls-2" d="M22.32,26.51Z"/><path class="cls-2" d="M22.32,26.5h0Zm0,0,.05,0Zm.05,0Zm-.06,0Z"/><path class="cls-2" d="M22.32,26.51Z"/><path class="cls-2" d="M22.26,26.28l-3.35-5.56-.2.11-.21.1a4.57,4.57,0,0,1-2,.44,4.42,4.42,0,0,1-1.31-.19L15,21.11,14.8,21l-2.56,6.22h0l.49.19a11.43,11.43,0,0,0,2.31.55h.09l.28,0h.05l.22,0h.82a11.83,11.83,0,0,0,1.88-.16h0l.2,0,.11,0,.12,0,.19,0h0a11.41,11.41,0,0,0,2.72-1h0L22,26.7l.34-.19h0l.05,0Zm-8.62-13,.16-.12v0L10.32,7.35l-.47.33a9.15,9.15,0,0,0-1,.8l4.74,4.74Z"/><path class="cls-2" d="M8.55,8.79l-.32.33a11.9,11.9,0,0,0-1,1.19l0,.06-.1.14L7,10.66l0,.06a11.19,11.19,0,0,0-1.75,5.61v.46H12v-.46a4.6,4.6,0,0,1,1-2.45l.16-.17.15-.16ZM22.42,7.12h0L22.21,7l-.1-.06L22,6.88l-.18-.09,0,0a11,11,0,0,0-1.21-.55h0l-.28-.1A12.4,12.4,0,0,0,18,5.57h-.19l-.18,0h-.05l-.22,0-.27,0H17v6.74a4.65,4.65,0,0,1,1,.22l5-5-.56-.37Z"/><path class="cls-2" d="M10.83,7.3l-.12-.2Zm-.12-.2Zm5.61-1.61h-.23a11.2,11.2,0,0,0-1.42.15h0l-.2,0-.11,0-.12,0-.19,0h0a11.5,11.5,0,0,0-2.71,1l-.56.32h0l3.47,5.76.2-.11.2-.1a4.36,4.36,0,0,1,1.51-.42l.22,0h.23V5.48h-.22Z"/><path class="cls-2" d="M27.84,16.23V16l0-.21v-.06l0-.24h0l0-.26h0a10.71,10.71,0,0,0-.34-1.59h0l-.07-.24v0l-.07-.22,0-.06-.07-.19,0-.08L27,12.58,27,12.46l0-.12-.06-.15,0-.09-.09-.18,0-.06-.11-.2v0l-.12-.23h0a12.14,12.14,0,0,0-.65-1l-5,5a4.42,4.42,0,0,1,.22,1h6.74Z"/><path class="cls-2" d="M21.13,16.79v.45a4.55,4.55,0,0,1-1,2.45,1.22,1.22,0,0,1-.15.17l-.15.17,4.75,4.75.16-.16.15-.17a10.74,10.74,0,0,0,1-1.19l0-.05.1-.15.09-.14.05-.07a11.28,11.28,0,0,0,1.75-5.61v-.45Z"/><path class="cls-2" d="M29.85,3.48A3.15,3.15,0,0,0,24.8,7.11L17.94,14a3.15,3.15,0,1,0,1.42,1.42l6.86-6.86a3.15,3.15,0,0,0,3.63-5Z"/></g></g></svg>