<svg xmlns="http://www.w3.org/2000/svg" viewBox="0 0 141.29 32"><defs><style>.cls-1{fill:#336791;}.cls-2{fill:#fff;}</style></defs><g id="Слой_2" data-name="Слой 2"><g id="Слой_1-2" data-name="Слой 1"><rect class="cls-1" width="141.29" height="32" rx="6.06"/><path class="cls-2" d="M40.13,18V22.5H37.49V9.7h5a5.82,5.82,0,0,1,2.54.53,3.84,3.84,0,0,1,1.68,1.5,4.17,4.17,0,0,1,.59,2.21,3.66,3.66,0,0,1-1.29,3A5.32,5.32,0,0,1,42.44,18Zm0-2.14h2.35a2.32,2.32,0,0,0,1.6-.49A1.82,1.82,0,0,0,44.63,14a2.13,2.13,0,0,0-.56-1.52,2.07,2.07,0,0,0-1.53-.59H40.13Z"/><path class="cls-2" d="M48.42,17.65A5.69,5.69,0,0,1,49,15.13a3.94,3.94,0,0,1,1.57-1.71,4.51,4.51,0,0,1,2.38-.61A4.31,4.31,0,0,1,56.06,14a4.75,4.75,0,0,1,1.36,3.2v.65a4.94,4.94,0,0,1-1.22,3.51,4.74,4.74,0,0,1-6.56,0,5,5,0,0,1-1.23-3.58Zm2.54.18a3.57,3.57,0,0,0,.51,2.08,1.84,1.84,0,0,0,2.9,0,3.88,3.88,0,0,0,.52-2.27,3.49,3.49,0,0,0-.52-2.06,1.81,1.81,0,0,0-2.9,0A3.92,3.92,0,0,0,51,17.83Z"/><path class="cls-2" d="M64.15,19.87a.82.82,0,0,0-.46-.73,5.19,5.19,0,0,0-1.48-.48q-3.41-.72-3.4-2.89a2.62,2.62,0,0,1,1-2.11,4.22,4.22,0,0,1,2.75-.85,4.63,4.63,0,0,1,2.9.85,2.7,2.7,0,0,1,1.08,2.22H64.05a1.25,1.25,0,0,0-.35-.9,1.47,1.47,0,0,0-1.1-.36,1.52,1.52,0,0,0-1,.29.91.91,0,0,0-.35.74.77.77,0,0,0,.4.68,4.16,4.16,0,0,0,1.35.45,11.63,11.63,0,0,1,1.6.43,2.62,2.62,0,0,1,2,2.55,2.48,2.48,0,0,1-1.12,2.11,4.83,4.83,0,0,1-2.88.8,5,5,0,0,1-2.12-.42A3.65,3.65,0,0,1,59,21.08a2.75,2.75,0,0,1-.53-1.61h2.41a1.35,1.35,0,0,0,.5,1,2,2,0,0,0,1.25.36,1.77,1.77,0,0,0,1.1-.28A.85.85,0,0,0,64.15,19.87Z"/><path class="cls-2" d="M71.29,10.65V13h1.63v1.86H71.29V19.6a1.08,1.08,0,0,0,.21.75,1,1,0,0,0,.77.23,4.22,4.22,0,0,0,.75-.06v1.92a5,5,0,0,1-1.54.23A2.43,2.43,0,0,1,68.75,20V14.85H67.37V13h1.38V10.65Z"/><path class="cls-2" d="M74,17.67a5.52,5.52,0,0,1,1-3.52,3.37,3.37,0,0,1,2.81-1.34,3,3,0,0,1,2.43,1.07l.11-.89h2.3v9.19a4,4,0,0,1-.57,2.17,3.63,3.63,0,0,1-1.59,1.41,5.66,5.66,0,0,1-2.41.48,5.17,5.17,0,0,1-2-.42,3.54,3.54,0,0,1-1.5-1.07l1.12-1.55A3,3,0,0,0,78,24.26a2.19,2.19,0,0,0,1.58-.54,2,2,0,0,0,.56-1.53v-.51a3,3,0,0,1-2.31,1A3.37,3.37,0,0,1,75,21.33a5.6,5.6,0,0,1-1-3.55Zm2.54.19a3.52,3.52,0,0,0,.51,2,1.65,1.65,0,0,0,1.43.73,1.76,1.76,0,0,0,1.66-.87v-4a1.76,1.76,0,0,0-1.64-.87,1.66,1.66,0,0,0-1.44.75A3.87,3.87,0,0,0,76.51,17.86Z"/><path class="cls-2" d="M90,15.37A6.33,6.33,0,0,0,89,15.3a1.86,1.86,0,0,0-1.89,1V22.5H84.61V13H87l.07,1.13a2.35,2.35,0,0,1,2.12-1.31,2.56,2.56,0,0,1,.79.12Z"/><path class="cls-2" d="M95.55,22.67a4.63,4.63,0,0,1-3.4-1.28A4.57,4.57,0,0,1,90.83,18v-.25a5.76,5.76,0,0,1,.56-2.56A4.06,4.06,0,0,1,93,13.42a4.49,4.49,0,0,1,2.32-.61A3.93,3.93,0,0,1,98.34,14a5,5,0,0,1,1.12,3.49v1h-6a2.34,2.34,0,0,0,.74,1.49,2.22,2.22,0,0,0,1.57.56A2.73,2.73,0,0,0,98,19.56L99.26,21a3.8,3.8,0,0,1-1.55,1.26A5.09,5.09,0,0,1,95.55,22.67Zm-.29-7.81a1.58,1.58,0,0,0-1.22.51,2.62,2.62,0,0,0-.61,1.47H97v-.21a2,2,0,0,0-.46-1.31A1.63,1.63,0,0,0,95.26,14.86Z"/><path class="cls-2" d="M107.71,19.14a1.37,1.37,0,0,0-.53-1.15,6.86,6.86,0,0,0-1.9-.84,13.54,13.54,0,0,1-2.17-.88,3.54,3.54,0,0,1-2.18-3.17,3.09,3.09,0,0,1,.59-1.85A3.78,3.78,0,0,1,103.19,10a6.42,6.42,0,0,1,2.46-.46,5.75,5.75,0,0,1,2.44.5,3.91,3.91,0,0,1,1.67,1.4,3.73,3.73,0,0,1,.59,2.06h-2.63a1.73,1.73,0,0,0-.56-1.37,2.3,2.3,0,0,0-1.55-.49,2.46,2.46,0,0,0-1.51.41,1.33,1.33,0,0,0-.53,1.08,1.25,1.25,0,0,0,.63,1.05,7.06,7.06,0,0,0,1.85.79,7.88,7.88,0,0,1,3.27,1.68,3.31,3.31,0,0,1,1,2.49,3.1,3.1,0,0,1-1.25,2.61,5.52,5.52,0,0,1-3.39.94,6.56,6.56,0,0,1-2.69-.54,4.25,4.25,0,0,1-1.85-1.48,3.82,3.82,0,0,1-.63-2.18h2.64c0,1.41.84,2.12,2.53,2.12a2.5,2.5,0,0,0,1.47-.38A1.26,1.26,0,0,0,107.71,19.14Z"/><path class="cls-2" d="M122.63,16.39a7.64,7.64,0,0,1-.58,3.11,5.36,5.36,0,0,1-1.61,2.13l2.13,1.67-1.68,1.48-2.72-2.19a5.15,5.15,0,0,1-1,.08,5.32,5.32,0,0,1-2.84-.76,5,5,0,0,1-1.93-2.19,7.48,7.48,0,0,1-.7-3.26v-.63a7.77,7.77,0,0,1,.68-3.33,5.16,5.16,0,0,1,1.93-2.21,5.62,5.62,0,0,1,5.68,0A5.09,5.09,0,0,1,122,12.5a7.72,7.72,0,0,1,.68,3.32ZM120,15.81a5.4,5.4,0,0,0-.72-3.06,2.54,2.54,0,0,0-4.11,0,5.34,5.34,0,0,0-.73,3v.63a5.44,5.44,0,0,0,.72,3,2.53,2.53,0,0,0,4.12,0,5.52,5.52,0,0,0,.72-3Z"/><path class="cls-2" d="M127.2,20.38h5.6V22.5h-8.24V9.7h2.64Z"/><path class="cls-2" d="M23.8,6a10.29,10.29,0,0,0-2.76.4l-.06,0a12.36,12.36,0,0,0-1.71-.16,5.79,5.79,0,0,0-3,.74A11.49,11.49,0,0,0,12,6.37,5.15,5.15,0,0,0,8.48,7.85a6.42,6.42,0,0,0-1.4,4.86,20.55,20.55,0,0,0,.49,2.88,32.91,32.91,0,0,0,1.2,4.15,9.1,9.1,0,0,0,1.91,3.44,2.34,2.34,0,0,0,1.72.74,2.22,2.22,0,0,0,1.32-.55,1.48,1.48,0,0,0,.56.45,2.75,2.75,0,0,0,.68.27,4.81,4.81,0,0,0,1.95.1,4,4,0,0,0,.88-.27l0,1a9.32,9.32,0,0,0,.38,2.83,3.75,3.75,0,0,0,.73,1.47,2.91,2.91,0,0,0,2.8.75,4.07,4.07,0,0,0,2.65-1.53c.71-1,1-2.46,1.09-4.81,0-.13,0-.24.06-.34l.17,0h0a6,6,0,0,0,2.71-.47,3.73,3.73,0,0,0,1.68-1.28,1.32,1.32,0,0,0,.24-.65,1.29,1.29,0,0,0-.45-1,1.36,1.36,0,0,0-1.37-.2,6,6,0,0,1-1.2.15A22.84,22.84,0,0,0,29.79,14a12.54,12.54,0,0,0,.45-3,3.42,3.42,0,0,0-.58-2.3A7.14,7.14,0,0,0,24,6Zm-.05.64a6.53,6.53,0,0,1,5.36,2.42A3,3,0,0,1,29.55,11a12.76,12.76,0,0,1-.43,2.79,22.45,22.45,0,0,1-2.9,6.49l.16.08a4.22,4.22,0,0,0,2.27-.05.92.92,0,0,1,.83.08.51.51,0,0,1,.18.42.67.67,0,0,1-.13.34,3.41,3.41,0,0,1-1.4,1,5.49,5.49,0,0,1-2.12.42,3.29,3.29,0,0,1-1-.12h0c-.11,1.06-.37,3.15-.53,4.11a3.35,3.35,0,0,1-.8,1.84,3.64,3.64,0,0,1-1.91.91,2.59,2.59,0,0,1-2.28-.43,3,3,0,0,1-.84-1.29,4,4,0,0,1-.19-.92c0-.4-.08-.89-.1-1.44q0-1.26,0-2.52a3,3,0,0,1-1.55.76,4.06,4.06,0,0,1-1.67-.09,1.81,1.81,0,0,1-.52-.2.89.89,0,0,1-.44-.4.5.5,0,0,1-.06-.38.57.57,0,0,1,.22-.33,1.88,1.88,0,0,1,.85-.33,2.74,2.74,0,0,0,1.12-.37,8.06,8.06,0,0,0,.54-.62v0a3.07,3.07,0,0,1-1.33-.36c-.15.16-.92,1-1.85,2.09a1.83,1.83,0,0,1-1.29.76,1.68,1.68,0,0,1-1.22-.55,9,9,0,0,1-1.75-3.19,32.78,32.78,0,0,1-1.17-4.07,19.64,19.64,0,0,1-.47-2.76A5.7,5.7,0,0,1,9,8.28,4.51,4.51,0,0,1,12.05,7a11.21,11.21,0,0,1,4.3.74,4.82,4.82,0,0,1,2.89-.8,7.37,7.37,0,0,1,1.68.22h0a6.29,6.29,0,0,1,.74-.22,10.28,10.28,0,0,1,2.07-.25Zm.15.67h-.14a8.87,8.87,0,0,0-1.71.19A7.59,7.59,0,0,1,24.9,9.78,8.65,8.65,0,0,1,26,11.7a4.83,4.83,0,0,1,.23.66,2.4,2.4,0,0,1,0,.24.76.76,0,0,1,0,.14v0c0,.87-.19,1.47-.21,2.3,0,.61.13,1.32.17,2.1a4,4,0,0,1-.52,2.32,1.71,1.71,0,0,1,.11.14,21.87,21.87,0,0,0,2.64-6A12.21,12.21,0,0,0,28.88,11a2.57,2.57,0,0,0-.3-1.46A5.73,5.73,0,0,0,23.9,7.34Zm-4.79.26a4,4,0,0,0-2.67.89A5,5,0,0,0,15,10.58,8.47,8.47,0,0,0,14.53,13h0a4.92,4.92,0,0,1,1.33-.51,2.58,2.58,0,0,1,1.53,0,1.73,1.73,0,0,1,1,1.31,7.14,7.14,0,0,1-.56,5.38,9.32,9.32,0,0,0-.33,1l.13,0a1.06,1.06,0,0,1,.54.11A1.5,1.5,0,0,1,19,21.36a.59.59,0,0,1,0,.13c0,1.25,0,2.49,0,3.74,0,.54.06,1,.1,1.38a3.66,3.66,0,0,0,.14.76,2.59,2.59,0,0,0,.65,1,1.86,1.86,0,0,0,1.71.28A2.84,2.84,0,0,0,23.19,28a2.68,2.68,0,0,0,.63-1.49c.18-1.05.54-4.09.59-4.66a1.89,1.89,0,0,1,.18-1,1.2,1.2,0,0,1,.55-.51l.26-.09-.24-.32a4.63,4.63,0,0,1-.67-1.1c-.08-.17-.17-.33-.26-.49s-.3-.54-.47-.87a10.8,10.8,0,0,1-.94-2.29,2.37,2.37,0,0,1,.28-2.2,2.7,2.7,0,0,1,2.43-.61c0-.11-.06-.2-.12-.34a7.29,7.29,0,0,0-1-1.76,6.43,6.43,0,0,0-5.14-2.6Zm-6.64.05h-.38A3.8,3.8,0,0,0,9.44,8.74a5,5,0,0,0-1,3.87,20.13,20.13,0,0,0,.45,2.65,32.25,32.25,0,0,0,1.15,4,8.57,8.57,0,0,0,1.59,2.93,1,1,0,0,0,.72.37,1.18,1.18,0,0,0,.8-.52c.58-.7,1.19-1.39,1.81-2.05a3.51,3.51,0,0,1-1.17-3.15,12,12,0,0,0,.11-2c0-.53,0-.88,0-1.1v0h0a9.94,9.94,0,0,1,.59-3.38,5.85,5.85,0,0,1,1.32-2.11,11.42,11.42,0,0,0-2.88-.57Zm12.4,5.28a1.67,1.67,0,0,0-1.26.41,1.81,1.81,0,0,0-.14,1.6,10.72,10.72,0,0,0,.88,2.14c.17.33.34.62.47.86a6.27,6.27,0,0,1,.29.56l.18.36a3.36,3.36,0,0,0,.28-1.67c0-.7-.2-1.42-.17-2.15s.19-1.4.21-2.06A6.13,6.13,0,0,0,24.87,12.93Zm-8.24.12a2.54,2.54,0,0,0-.61.07,5,5,0,0,0-1.16.45,2.54,2.54,0,0,0-.34.23l0,0c0,.14,0,.5,0,1a13.24,13.24,0,0,1-.11,2.08,2.65,2.65,0,0,0,2.46,3.13A8.54,8.54,0,0,1,17.25,19a6.32,6.32,0,0,0,.54-5,1,1,0,0,0-.63-.83A1.37,1.37,0,0,0,16.63,13.05Zm7.92.2h.05l.18,0a.35.35,0,0,1,.14.06.12.12,0,0,1,.07.11h0a.31.31,0,0,1,0,.13.58.58,0,0,1-.11.15.65.65,0,0,1-.39.21.6.6,0,0,1-.41-.1.49.49,0,0,1-.13-.12.26.26,0,0,1-.06-.13.14.14,0,0,1,0-.12.27.27,0,0,1,.12-.09.9.9,0,0,1,.37-.12Zm-7.82.17h.17a1.05,1.05,0,0,1,.39.12.47.47,0,0,1,.13.11.27.27,0,0,1,.06.17.28.28,0,0,1-.08.15.57.57,0,0,1-.14.13.61.61,0,0,1-.45.12.76.76,0,0,1-.42-.23.66.66,0,0,1-.12-.17.33.33,0,0,1,0-.17.28.28,0,0,1,.19-.2,1.1,1.1,0,0,1,.31,0Zm9.06,7.34h0c-.15.06-.27.08-.37.12a.43.43,0,0,0-.24.22,1.26,1.26,0,0,0-.1.66.35.35,0,0,0,.15.07,2.62,2.62,0,0,0,.77.08,4.9,4.9,0,0,0,1.84-.35,4,4,0,0,0,.95-.61h0a4.67,4.67,0,0,1-2.67,0,1.38,1.38,0,0,1-.33-.2Zm-8,.1h0s-.13,0-.28.18a7.34,7.34,0,0,1-.76.87,3.11,3.11,0,0,1-1.4.5,2.15,2.15,0,0,0-.46.14.22.22,0,0,0,.07.06,1.78,1.78,0,0,0,.36.14,3.52,3.52,0,0,0,1.39.08,2.39,2.39,0,0,0,1.61-1,.53.53,0,0,0,0-.48.7.7,0,0,0-.33-.39.66.66,0,0,0-.2-.06Z"/></g></g></svg>