<svg xmlns="http://www.w3.org/2000/svg" viewBox="0 0 89.16 32"><defs><style>.cls-1{fill:#61dafb;}</style></defs><g id="Слой_2" data-name="Слой 2"><g id="Слой_1-2" data-name="Слой 1"><rect class="cls-1" width="89.16" height="32" rx="6.06"/><path d="M39.93,17.81h-2.1V22.5H35.19V9.7h4.75a5.39,5.39,0,0,1,3.5,1,3.49,3.49,0,0,1,1.23,2.86,3.91,3.91,0,0,1-.57,2.18,3.82,3.82,0,0,1-1.71,1.39l2.77,5.23v.13H42.33Zm-2.1-2.13H40a2.17,2.17,0,0,0,1.54-.51A1.82,1.82,0,0,0,42,13.78a2,2,0,0,0-.52-1.43,2.16,2.16,0,0,0-1.58-.51H37.83Z"/><path d="M50.89,22.67a4.66,4.66,0,0,1-3.41-1.28A4.56,4.56,0,0,1,46.17,18v-.25a5.76,5.76,0,0,1,.55-2.56,4.08,4.08,0,0,1,1.57-1.74,4.38,4.38,0,0,1,2.31-.61A4,4,0,0,1,53.68,14a5,5,0,0,1,1.12,3.49v1H48.74a2.34,2.34,0,0,0,.74,1.49,2.24,2.24,0,0,0,1.57.56,2.74,2.74,0,0,0,2.3-1.06L54.59,21a3.76,3.76,0,0,1-1.54,1.26A5.09,5.09,0,0,1,50.89,22.67Zm-.29-7.81a1.58,1.58,0,0,0-1.23.51,2.69,2.69,0,0,0-.6,1.47H52.3v-.21a1.86,1.86,0,0,0-.46-1.31A1.62,1.62,0,0,0,50.6,14.86Z"/><path d="M61.75,22.5a3,3,0,0,1-.26-.86,3,3,0,0,1-2.4,1,3.36,3.36,0,0,1-2.31-.81,2.58,2.58,0,0,1-.92-2A2.67,2.67,0,0,1,57,17.51a5.49,5.49,0,0,1,3.24-.82h1.17v-.55a1.53,1.53,0,0,0-.34-1.05,1.32,1.32,0,0,0-1.07-.4A1.46,1.46,0,0,0,59,15a1,1,0,0,0-.37.84H56.07a2.56,2.56,0,0,1,.51-1.53A3.38,3.38,0,0,1,58,13.21a5.19,5.19,0,0,1,2.09-.4,4.16,4.16,0,0,1,2.79.88,3.1,3.1,0,0,1,1,2.49V20.3a4.45,4.45,0,0,0,.38,2.05v.15Zm-2.1-1.77a2.19,2.19,0,0,0,1-.25,1.68,1.68,0,0,0,.7-.67V18.17h-1c-1.27,0-1.95.44-2,1.32v.15a1,1,0,0,0,.33.78A1.3,1.3,0,0,0,59.65,20.73Z"/><path d="M69.84,20.62A1.68,1.68,0,0,0,71,20.24a1.36,1.36,0,0,0,.45-1h2.39A3.36,3.36,0,0,1,73.3,21a3.52,3.52,0,0,1-1.42,1.25,4.54,4.54,0,0,1-2,.44,4.15,4.15,0,0,1-3.22-1.29,5.18,5.18,0,0,1-1.18-3.59v-.16a5.06,5.06,0,0,1,1.17-3.51,4.1,4.1,0,0,1,3.21-1.31,4,4,0,0,1,2.86,1,3.6,3.6,0,0,1,1.1,2.7H71.44A1.75,1.75,0,0,0,71,15.32a1.7,1.7,0,0,0-2.5.19A3.65,3.65,0,0,0,68,17.6v.27A3.78,3.78,0,0,0,68.48,20,1.54,1.54,0,0,0,69.84,20.62Z"/><path d="M78.32,10.65V13h1.62v1.86H78.32V19.6a1.09,1.09,0,0,0,.2.75,1,1,0,0,0,.77.23,4.22,4.22,0,0,0,.75-.06v1.92a5,5,0,0,1-1.54.23A2.42,2.42,0,0,1,75.78,20V14.85H74.39V13h1.39V10.65Z"/><path d="M17.34,13.86A2.14,2.14,0,1,0,19.48,16,2.14,2.14,0,0,0,17.34,13.86Zm-6,6.39-.47-.12C7.36,19.25,5.34,17.74,5.34,16s2-3.25,5.54-4.14l.47-.12.13.47a24.07,24.07,0,0,0,1.36,3.57l.1.22-.1.21a23.77,23.77,0,0,0-1.36,3.58ZM10.66,13C8,13.7,6.34,14.85,6.34,16S8,18.29,10.66,19a23.31,23.31,0,0,1,1.18-3A24,24,0,0,1,10.66,13Zm12.67,7.3-.13-.46a22.78,22.78,0,0,0-1.37-3.58l-.1-.21.1-.22A22.78,22.78,0,0,0,23.2,12.2l.13-.46.47.12c3.52.88,5.54,2.39,5.54,4.14s-2,3.25-5.54,4.13ZM22.84,16A23.69,23.69,0,0,1,24,19c2.68-.75,4.32-1.9,4.32-3S26.7,13.7,24,13A24,24,0,0,1,22.84,16ZM10.65,12.94l-.13-.46c-1-3.49-.69-6,.82-6.86s3.86.16,6.36,2.72l.34.35L17.7,9a22.82,22.82,0,0,0-2.42,3l-.14.2-.23,0a23,23,0,0,0-3.79.61Zm1.9-6.63a1.36,1.36,0,0,0-.71.18c-1,.57-1.17,2.56-.48,5.25a24.94,24.94,0,0,1,3.23-.5A25,25,0,0,1,16.64,8.7C15.08,7.18,13.6,6.31,12.55,6.31Zm9.58,20.37h0c-1.42,0-3.25-1.08-5.15-3l-.34-.35L17,23a23.61,23.61,0,0,0,2.42-3l.14-.2.23,0a24.31,24.31,0,0,0,3.79-.6l.47-.12.13.46c1,3.49.69,6-.82,6.86A2.42,2.42,0,0,1,22.13,26.68ZM18,23.3c1.56,1.51,3,2.38,4.09,2.38h0a1.36,1.36,0,0,0,.71-.18c1-.57,1.17-2.56.48-5.25a24.94,24.94,0,0,1-3.23.5A26.29,26.29,0,0,1,18,23.3Zm6-10.36-.47-.11a23.2,23.2,0,0,0-3.79-.61l-.23,0L19.4,12A22.82,22.82,0,0,0,17,9l-.34-.35L17,8.34c2.49-2.56,4.87-3.57,6.36-2.72s1.81,3.37.82,6.86Zm-3.94-1.7a23.77,23.77,0,0,1,3.23.5c.69-2.69.51-4.68-.48-5.25S20,6.79,18,8.7A25,25,0,0,1,20.09,11.24ZM12.55,26.68a2.42,2.42,0,0,1-1.21-.31c-1.51-.87-1.81-3.37-.82-6.86l.13-.46.47.12a23.49,23.49,0,0,0,3.79.6l.23,0,.13.2a24.6,24.6,0,0,0,2.43,3l.34.34-.34.35C15.8,25.6,14,26.68,12.55,26.68Zm-1.19-6.43c-.69,2.69-.51,4.68.48,5.25s2.84-.3,4.8-2.2a26.29,26.29,0,0,1-2.05-2.55A24.94,24.94,0,0,1,11.36,20.25Zm6,.63c-.82,0-1.67,0-2.52-.11l-.23,0-.14-.19c-.48-.69-.93-1.4-1.35-2.12s-.8-1.47-1.16-2.23l-.1-.21.1-.22c.36-.76.74-1.5,1.16-2.23s.87-1.43,1.35-2.12l.14-.19.23,0a30.29,30.29,0,0,1,5,0l.23,0,.13.19a29.46,29.46,0,0,1,2.52,4.35l.1.22-.1.21a28.6,28.6,0,0,1-2.52,4.35l-.13.19-.23,0C19,20.84,18.16,20.88,17.34,20.88Zm-2.2-1.09a29.37,29.37,0,0,0,4.4,0A29.13,29.13,0,0,0,21.73,16a29.25,29.25,0,0,0-2.19-3.8,29.37,29.37,0,0,0-4.4,0A27.54,27.54,0,0,0,13,16,29.81,29.81,0,0,0,15.14,19.79Z"/></g></g></svg>