<svg xmlns="http://www.w3.org/2000/svg" viewBox="0 0 77.5 32"><defs><style>.cls-1{fill:#fff;}</style></defs><g id="Слой_2" data-name="Слой 2"><g id="Слой_1-2" data-name="Слой 1"><rect width="77.5" height="32" rx="6.06"/><path class="cls-1" d="M40.23,17.81h-2.1V22.5H35.49V9.7h4.76a5.38,5.38,0,0,1,3.49,1A3.49,3.49,0,0,1,45,13.57a3.9,3.9,0,0,1-.56,2.18,3.85,3.85,0,0,1-1.72,1.39l2.77,5.23v.13H42.63Zm-2.1-2.13h2.13a2.14,2.14,0,0,0,1.53-.51,1.79,1.79,0,0,0,.55-1.39,1.92,1.92,0,0,0-.52-1.43,2.13,2.13,0,0,0-1.57-.51H38.13Z"/><path class="cls-1" d="M52.51,21.53a3.2,3.2,0,0,1-2.6,1.14,3,3,0,0,1-2.34-.88,3.75,3.75,0,0,1-.82-2.57V13h2.54v6.15c0,1,.45,1.48,1.35,1.48a1.82,1.82,0,0,0,1.78-.89V13H55V22.5H52.58Z"/><path class="cls-1" d="M62,19.87a.8.8,0,0,0-.46-.73,5.08,5.08,0,0,0-1.48-.48q-3.39-.72-3.39-2.89a2.62,2.62,0,0,1,1-2.11,4.22,4.22,0,0,1,2.75-.85,4.6,4.6,0,0,1,2.89.85,2.68,2.68,0,0,1,1.09,2.22H61.94a1.25,1.25,0,0,0-.35-.9,1.49,1.49,0,0,0-1.1-.36,1.57,1.57,0,0,0-1,.29.94.94,0,0,0-.35.74.79.79,0,0,0,.4.68,4.34,4.34,0,0,0,1.35.45,11.25,11.25,0,0,1,1.6.43,2.62,2.62,0,0,1,2,2.55,2.49,2.49,0,0,1-1.11,2.11,4.88,4.88,0,0,1-2.88.8,5.12,5.12,0,0,1-2.13-.42,3.62,3.62,0,0,1-1.45-1.17,2.75,2.75,0,0,1-.53-1.61h2.41a1.32,1.32,0,0,0,.5,1,2,2,0,0,0,1.25.36,1.81,1.81,0,0,0,1.1-.28A.84.84,0,0,0,62,19.87Z"/><path class="cls-1" d="M69.18,10.65V13h1.63v1.86H69.18V19.6a1.14,1.14,0,0,0,.2.75,1,1,0,0,0,.78.23,4,4,0,0,0,.74-.06v1.92a5,5,0,0,1-1.54.23A2.42,2.42,0,0,1,66.64,20V14.85H65.25V13h1.39V10.65Z"/><path class="cls-1" d="M28.32,15.71l-1-.62a2.85,2.85,0,0,0,0-.29l.86-.8a.34.34,0,0,0,0-.48.34.34,0,0,0-.12-.09L26.94,13c0-.09-.05-.18-.08-.28l.68-1a.33.33,0,0,0-.08-.47.35.35,0,0,0-.14-.06l-1.16-.19c0-.09-.09-.17-.14-.26l.49-1.06a.32.32,0,0,0,0-.33.35.35,0,0,0-.3-.16L25,9.3l-.18-.22.27-1.14a.34.34,0,0,0-.26-.41.38.38,0,0,0-.15,0l-1.14.27-.23-.19,0-1.17A.33.33,0,0,0,23,6.09a.45.45,0,0,0-.16,0l-1.06.48-.26-.13-.19-1.16a.34.34,0,0,0-.54-.22l-.95.68-.28-.08-.41-1.1a.34.34,0,0,0-.44-.19.26.26,0,0,0-.13.08l-.8.86-.29,0-.61-1a.34.34,0,0,0-.47-.11.29.29,0,0,0-.11.11l-.62,1-.29,0-.8-.86a.34.34,0,0,0-.48,0,.38.38,0,0,0-.09.13l-.41,1.1-.28.08-.95-.68a.35.35,0,0,0-.48.08.24.24,0,0,0,0,.14L11.7,6.47l-.26.13-1.06-.48a.35.35,0,0,0-.46.17.4.4,0,0,0,0,.15l0,1.17-.22.19L8.57,7.53a.34.34,0,0,0-.41.26.2.2,0,0,0,0,.15l.26,1.14-.18.22-1.17,0a.34.34,0,0,0-.35.33.22.22,0,0,0,0,.16l.48,1.06-.14.26-1.15.19a.34.34,0,0,0-.28.39.35.35,0,0,0,.06.14l.68,1L6.31,13l-1.09.41a.35.35,0,0,0-.2.45.27.27,0,0,0,.09.12l.85.8,0,.29-1,.62a.34.34,0,0,0-.12.46.34.34,0,0,0,.12.12l1,.61,0,.29-.85.8a.35.35,0,0,0,0,.49.26.26,0,0,0,.13.08L6.31,19l.09.28-.68.95a.35.35,0,0,0,.07.48.47.47,0,0,0,.15.06l1.15.19c0,.08.09.17.14.26l-.48,1.06a.33.33,0,0,0,.17.45.4.4,0,0,0,.15,0l1.17,0,.19.23-.27,1.14a.34.34,0,0,0,.25.41.43.43,0,0,0,.16,0l1.14-.27.22.18,0,1.17a.35.35,0,0,0,.33.36.45.45,0,0,0,.16,0l1.06-.49.26.14.19,1.15a.35.35,0,0,0,.39.29.35.35,0,0,0,.14-.06l.95-.68.28.08.41,1.09a.35.35,0,0,0,.44.21.3.3,0,0,0,.13-.09l.8-.86.29,0,.62,1a.34.34,0,0,0,.47.11.57.57,0,0,0,.11-.11l.62-1,.29,0,.79.86a.35.35,0,0,0,.49,0,.22.22,0,0,0,.08-.13l.41-1.09.28-.08.95.68a.34.34,0,0,0,.54-.23l.19-1.15.26-.14,1.06.49a.35.35,0,0,0,.45-.17.22.22,0,0,0,0-.16l0-1.17.23-.18,1.14.27a.35.35,0,0,0,.41-.26.38.38,0,0,0,0-.15l-.27-1.14.18-.23,1.17,0a.34.34,0,0,0,.36-.32.41.41,0,0,0,0-.16L26,21.19l.14-.26,1.15-.19a.34.34,0,0,0,.23-.54l-.68-.95.08-.28L28,18.56a.35.35,0,0,0,.21-.44.38.38,0,0,0-.09-.13l-.86-.8,0-.29,1-.61a.34.34,0,0,0,.11-.47.38.38,0,0,0-.11-.11ZM21.66,24a.71.71,0,0,1-.54-.84.7.7,0,0,1,.83-.54A.71.71,0,1,1,21.66,24Zm-.34-2.29a.64.64,0,0,0-.76.5h0l-.35,1.65a8.67,8.67,0,0,1-7.23,0l-.35-1.65a.65.65,0,0,0-.76-.49h0L10.41,22a8.94,8.94,0,0,1-.75-.88h7.08c.08,0,.13,0,.13-.09V18.47c0-.07-.05-.08-.13-.08H14.67V16.8h2.24A1.4,1.4,0,0,1,18.28,18c.09.35.29,1.49.42,1.85s.68,1.23,1.26,1.23h3.52l.13,0a7.22,7.22,0,0,1-.8.94Zm-9.79,2.26a.71.71,0,0,1-.84-.55.7.7,0,0,1,.54-.83.71.71,0,1,1,.3,1.38ZM8.84,13a.71.71,0,1,1-1.27.62.05.05,0,0,0,0,0,.71.71,0,0,1,.39-.92A.7.7,0,0,1,8.84,13ZM8,15l1.51-.67a.65.65,0,0,0,.33-.85h0l-.31-.71h1.22V18.3H8.3A8.61,8.61,0,0,1,8,15Zm6.65-.54V12.82h2.92c.15,0,1.07.18,1.07.86s-.7.77-1.28.77Zm10.62,1.47c0,.22,0,.43,0,.64h-.89c-.09,0-.12.06-.12.15v.41c0,1-.55,1.17-1,1.22s-.95-.19-1-.46a3.05,3.05,0,0,0-1.41-2.38A3.2,3.2,0,0,0,22.59,13a2.8,2.8,0,0,0-1.36-2.29,3.84,3.84,0,0,0-1.86-.61H10.18A8.62,8.62,0,0,1,15,7.41l1.09,1.13a.63.63,0,0,0,.9,0h0L18.23,7.4a8.68,8.68,0,0,1,5.93,4.23l-.83,1.87a.64.64,0,0,0,.32.85l1.6.71a8.12,8.12,0,0,1,0,.86ZM16.11,6.44a.7.7,0,0,1,1,0,.71.71,0,0,1,0,1h0a.7.7,0,0,1-1-1Zm8.23,6.63a.71.71,0,1,1,.36.93.72.72,0,0,1-.36-.93Z"/></g></g></svg>