<svg xmlns="http://www.w3.org/2000/svg" viewBox="0 0 81.22 32"><defs><style>.cls-1{fill:#c69;}.cls-2{fill:#fff;}</style></defs><g id="Слой_2" data-name="Слой 2"><g id="Слой_1-2" data-name="Слой 1"><rect class="cls-1" width="81.22" height="32" rx="6.06"/><path class="cls-2" d="M41.13,19.14A1.37,1.37,0,0,0,40.6,18a7.18,7.18,0,0,0-1.9-.84,13.54,13.54,0,0,1-2.17-.88,3.54,3.54,0,0,1-2.18-3.17,3.09,3.09,0,0,1,.59-1.85A3.78,3.78,0,0,1,36.61,10a6.42,6.42,0,0,1,2.46-.46,5.75,5.75,0,0,1,2.44.5,3.91,3.91,0,0,1,1.67,1.4,3.73,3.73,0,0,1,.59,2.06H41.14a1.73,1.73,0,0,0-.56-1.37A2.3,2.3,0,0,0,39,11.62a2.46,2.46,0,0,0-1.51.41A1.31,1.31,0,0,0,37,13.11a1.25,1.25,0,0,0,.63,1.05,7.06,7.06,0,0,0,1.85.79,7.88,7.88,0,0,1,3.27,1.68,3.31,3.31,0,0,1,1,2.49,3.1,3.1,0,0,1-1.25,2.61,5.52,5.52,0,0,1-3.39.94,6.56,6.56,0,0,1-2.69-.54,4.25,4.25,0,0,1-1.85-1.48A3.82,3.82,0,0,1,34,18.47H36.6c0,1.41.84,2.12,2.53,2.12a2.5,2.5,0,0,0,1.47-.38A1.26,1.26,0,0,0,41.13,19.14Z"/><path class="cls-2" d="M50.9,22.5a2.73,2.73,0,0,1-.25-.86,3.07,3.07,0,0,1-2.4,1,3.36,3.36,0,0,1-2.32-.81,2.58,2.58,0,0,1-.92-2,2.72,2.72,0,0,1,1.12-2.33,5.57,5.57,0,0,1,3.24-.81h1.17v-.55a1.53,1.53,0,0,0-.34-1.05,1.3,1.3,0,0,0-1.07-.4,1.48,1.48,0,0,0-1,.31,1,1,0,0,0-.37.84H45.22a2.56,2.56,0,0,1,.51-1.53,3.46,3.46,0,0,1,1.44-1.1,5.38,5.38,0,0,1,2.1-.4,4.15,4.15,0,0,1,2.79.89,3.09,3.09,0,0,1,1,2.48V20.3a4.45,4.45,0,0,0,.38,2.05v.15Zm-2.1-1.77a2.19,2.19,0,0,0,1-.25,1.68,1.68,0,0,0,.7-.67V18.17h-.95c-1.27,0-2,.44-2,1.32v.15a1,1,0,0,0,.34.78A1.26,1.26,0,0,0,48.8,20.73Z"/><path class="cls-2" d="M60.19,19.87a.8.8,0,0,0-.46-.73,5.19,5.19,0,0,0-1.48-.48q-3.39-.72-3.39-2.89a2.62,2.62,0,0,1,1-2.11,4.19,4.19,0,0,1,2.74-.85,4.63,4.63,0,0,1,2.9.85,2.7,2.7,0,0,1,1.08,2.22H60.09a1.21,1.21,0,0,0-.35-.9,1.47,1.47,0,0,0-1.1-.36,1.54,1.54,0,0,0-1,.29.94.94,0,0,0-.35.74.77.77,0,0,0,.4.68,4.34,4.34,0,0,0,1.35.45,11.63,11.63,0,0,1,1.6.43,2.62,2.62,0,0,1,2,2.55,2.48,2.48,0,0,1-1.12,2.11,4.77,4.77,0,0,1-2.88.8,5.08,5.08,0,0,1-2.12-.42,3.72,3.72,0,0,1-1.46-1.17,2.73,2.73,0,0,1-.52-1.61H57a1.36,1.36,0,0,0,.51,1,2,2,0,0,0,1.24.36,1.82,1.82,0,0,0,1.11-.28A.84.84,0,0,0,60.19,19.87Z"/><path class="cls-2" d="M69.45,19.87a.81.81,0,0,0-.47-.73,5.08,5.08,0,0,0-1.48-.48q-3.39-.72-3.39-2.89a2.62,2.62,0,0,1,1-2.11,4.22,4.22,0,0,1,2.75-.85,4.6,4.6,0,0,1,2.89.85,2.68,2.68,0,0,1,1.09,2.22H69.35A1.25,1.25,0,0,0,69,15a1.49,1.49,0,0,0-1.1-.36,1.52,1.52,0,0,0-1,.29.92.92,0,0,0-.36.74.79.79,0,0,0,.4.68,4.34,4.34,0,0,0,1.35.45,10.89,10.89,0,0,1,1.6.43,2.63,2.63,0,0,1,2,2.55,2.5,2.5,0,0,1-1.12,2.11,4.81,4.81,0,0,1-2.88.8,5.12,5.12,0,0,1-2.13-.42,3.68,3.68,0,0,1-1.45-1.17,2.75,2.75,0,0,1-.53-1.61h2.41a1.32,1.32,0,0,0,.5,1,2,2,0,0,0,1.25.36,1.79,1.79,0,0,0,1.1-.28A.85.85,0,0,0,69.45,19.87Z"/><path class="cls-2" d="M16.3,4a12,12,0,1,1-12,12A12,12,0,0,1,16.3,4ZM13.92,20a3.1,3.1,0,0,1,0,1.79l-.06.18-.08.18a3.62,3.62,0,0,1-.55.81c-.7.76-1.68,1-2.09.8s-.23-1.33.58-2.19a8.11,8.11,0,0,1,2.12-1.51h0ZM23.83,9.14C23.29,7,19.75,6.3,16.41,7.49a16.88,16.88,0,0,0-5.7,3.27c-1.84,1.72-2.13,3.22-2,3.85.43,2.21,3.46,3.65,4.7,4.73h0c-.37.18-3.05,1.53-3.68,2.93s.1,2.52.61,2.65a3.79,3.79,0,0,0,4.07-1.65,4.14,4.14,0,0,0,.4-3.67,4.58,4.58,0,0,1,1.83-.11c2.1.24,2.52,1.56,2.43,2.1a1.46,1.46,0,0,1-.67.95c-.15.09-.2.12-.19.18s.1.09.21.07a1.67,1.67,0,0,0,1.15-1.47c0-1.29-1.19-2.73-3.38-2.7a5.31,5.31,0,0,0-1.87.26.38.38,0,0,0-.11-.11c-1.35-1.45-3.85-2.47-3.75-4.41,0-.7.29-2.56,4.8-4.81C19,7.7,21.91,8.22,22.42,9.34c.73,1.6-1.57,4.59-5.43,5a2.89,2.89,0,0,1-2.43-.61c-.21-.23-.24-.24-.31-.19s-.05.25,0,.37A2.3,2.3,0,0,0,15.64,15a7.48,7.48,0,0,0,4.5-.45c2.33-.9,4.14-3.41,3.62-5.51Z"/></g></g></svg>