<svg xmlns="http://www.w3.org/2000/svg" viewBox="0 0 130.62 32"><defs><style>.cls-1{fill:#007acc;}.cls-2{fill:#fff;}</style></defs><g id="Слой_2" data-name="Слой 2"><g id="Слой_1-2" data-name="Слой 1"><rect class="cls-1" width="130.62" height="32" rx="6.06"/><path class="cls-2" d="M45.12,11.84H41.2V22.5H38.57V11.84H34.7V9.7H45.12Z"/><path class="cls-2" d="M50,18.9,51.77,13h2.72L50.67,24l-.21.5a2.9,2.9,0,0,1-2.81,1.87,4.08,4.08,0,0,1-1.13-.17V24.25h.39A2.12,2.12,0,0,0,48,24a1.42,1.42,0,0,0,.56-.73l.3-.79L45.51,13h2.73Z"/><path class="cls-2" d="M64.06,17.83a5.74,5.74,0,0,1-1,3.52,3.21,3.21,0,0,1-2.7,1.32,2.93,2.93,0,0,1-2.32-1v4.48H55.5V13h2.35l.09.93a3,3,0,0,1,2.41-1.11,3.23,3.23,0,0,1,2.73,1.3,5.87,5.87,0,0,1,1,3.59Zm-2.54-.18a3.77,3.77,0,0,0-.47-2,1.54,1.54,0,0,0-1.37-.72,1.64,1.64,0,0,0-1.64.91v3.89a1.68,1.68,0,0,0,1.66.94C60.91,20.62,61.52,19.63,61.52,17.65Z"/><path class="cls-2" d="M70,22.67a4.66,4.66,0,0,1-3.41-1.28A4.56,4.56,0,0,1,65.29,18v-.25a5.76,5.76,0,0,1,.55-2.56,4.08,4.08,0,0,1,1.57-1.74,4.48,4.48,0,0,1,2.31-.61A4,4,0,0,1,72.8,14a5,5,0,0,1,1.12,3.49v1H67.86a2.34,2.34,0,0,0,.74,1.49,2.24,2.24,0,0,0,1.57.56,2.74,2.74,0,0,0,2.3-1.06L73.71,21a3.76,3.76,0,0,1-1.54,1.26A5.09,5.09,0,0,1,70,22.67Zm-.29-7.81a1.58,1.58,0,0,0-1.23.51,2.69,2.69,0,0,0-.6,1.47h3.53v-.21A1.86,1.86,0,0,0,71,15.32,1.62,1.62,0,0,0,69.72,14.86Z"/><path class="cls-2" d="M82.16,19.14A1.34,1.34,0,0,0,81.63,18a7.23,7.23,0,0,0-1.89-.84,13.7,13.7,0,0,1-2.18-.88,3.54,3.54,0,0,1-2.18-3.17A3.09,3.09,0,0,1,76,11.25,3.87,3.87,0,0,1,77.65,10a6.4,6.4,0,0,1,2.45-.46,5.8,5.8,0,0,1,2.45.5,3.88,3.88,0,0,1,1.66,1.4,3.66,3.66,0,0,1,.6,2.06H82.17a1.73,1.73,0,0,0-.55-1.37,2.31,2.31,0,0,0-1.56-.49,2.45,2.45,0,0,0-1.5.41A1.3,1.3,0,0,0,78,13.11a1.25,1.25,0,0,0,.63,1.05A7.37,7.37,0,0,0,80.5,15a8,8,0,0,1,3.28,1.68,3.35,3.35,0,0,1,1,2.49,3.08,3.08,0,0,1-1.26,2.61,5.51,5.51,0,0,1-3.38.94,6.53,6.53,0,0,1-2.69-.54,4.19,4.19,0,0,1-1.85-1.48A3.76,3.76,0,0,1,75,18.47h2.64c0,1.41.85,2.12,2.54,2.12a2.48,2.48,0,0,0,1.46-.38A1.23,1.23,0,0,0,82.16,19.14Z"/><path class="cls-2" d="M90.38,20.62a1.64,1.64,0,0,0,1.14-.38,1.37,1.37,0,0,0,.46-1h2.38A3.25,3.25,0,0,1,93.83,21a3.45,3.45,0,0,1-1.42,1.25,4.37,4.37,0,0,1-2,.44,4.12,4.12,0,0,1-3.21-1.29A5.13,5.13,0,0,1,86,17.79v-.16a5.06,5.06,0,0,1,1.17-3.51,4.1,4.1,0,0,1,3.21-1.31,4,4,0,0,1,2.86,1,3.59,3.59,0,0,1,1.09,2.7H92a1.77,1.77,0,0,0-.46-1.21,1.51,1.51,0,0,0-1.16-.46,1.53,1.53,0,0,0-1.34.65,3.76,3.76,0,0,0-.45,2.1v.26A3.78,3.78,0,0,0,89,20,1.54,1.54,0,0,0,90.38,20.62Z"/><path class="cls-2" d="M101.15,15.37a6.33,6.33,0,0,0-.91-.07,1.86,1.86,0,0,0-1.89,1V22.5H95.81V13h2.4l.07,1.13a2.36,2.36,0,0,1,2.12-1.31,2.56,2.56,0,0,1,.79.12Z"/><path class="cls-2" d="M102.36,10.53a1.26,1.26,0,0,1,.38-.94,1.65,1.65,0,0,1,2.08,0,1.33,1.33,0,0,1,0,1.89,1.65,1.65,0,0,1-2.06,0A1.27,1.27,0,0,1,102.36,10.53Zm2.7,12h-2.55V13h2.55Z"/><path class="cls-2" d="M115.71,17.83a5.68,5.68,0,0,1-1,3.52A3.19,3.19,0,0,1,112,22.67a3,3,0,0,1-2.33-1v4.48h-2.54V13h2.35l.09.93A3,3,0,0,1,112,12.81a3.23,3.23,0,0,1,2.73,1.3,5.87,5.87,0,0,1,1,3.59Zm-2.54-.18a3.77,3.77,0,0,0-.47-2,1.53,1.53,0,0,0-1.37-.72,1.66,1.66,0,0,0-1.64.91v3.89a1.68,1.68,0,0,0,1.66.94C112.56,20.62,113.17,19.63,113.17,17.65Z"/><path class="cls-2" d="M120.32,10.65V13H122v1.86h-1.63V19.6a1.08,1.08,0,0,0,.21.75,1,1,0,0,0,.77.23,4.22,4.22,0,0,0,.75-.06v1.92a5,5,0,0,1-1.54.23,2.43,2.43,0,0,1-2.73-2.7V14.85h-1.39V13h1.39V10.65Z"/><path class="cls-2" d="M6.11,16V26.88H27.87V5.12H6.11Zm17.54-.87a2.76,2.76,0,0,1,1.36.79,3.14,3.14,0,0,1,.52.7s-.94.66-1.51,1c0,0-.11-.07-.2-.21a1.22,1.22,0,0,0-1-.61c-.66,0-1.09.3-1.08.87a.73.73,0,0,0,.09.41c.14.3.42.48,1.26.85,1.56.67,2.23,1.11,2.64,1.74A3.14,3.14,0,0,1,26,23.33a2.89,2.89,0,0,1-2.41,1.72,6.52,6.52,0,0,1-1.65,0,4,4,0,0,1-2.22-1.16,3.57,3.57,0,0,1-.56-.83,1.33,1.33,0,0,1,.19-.13l.81-.47.63-.36.13.19a2.82,2.82,0,0,0,.83.79,2,2,0,0,0,2.11-.1.81.81,0,0,0,.29-.66.76.76,0,0,0-.17-.55c-.16-.24-.51-.45-1.49-.87a5.44,5.44,0,0,1-2.05-1.26,2.92,2.92,0,0,1-.6-1.09,4.63,4.63,0,0,1,0-1.39A2.68,2.68,0,0,1,22,15.08,5.71,5.71,0,0,1,23.65,15.13ZM18.54,16v.89H15.71V25h-2v-8H10.88v-.87c0-.49,0-.89,0-.9s1.73,0,3.82,0h3.81Z"/></g></g></svg>