<svg xmlns="http://www.w3.org/2000/svg" viewBox="0 0 77.5 32"><defs><style>.cls-1{fill:#2c8ebb;}.cls-2{fill:#fff;}</style></defs><g id="Слой_2" data-name="Слой 2"><g id="Слой_1-2" data-name="Слой 1"><rect class="cls-1" width="77.5" height="32" rx="6.06"/><path class="cls-2" d="M38.9,15.47,41.57,9.7h2.88l-4.2,8.16V22.5H37.57V17.86L33.37,9.7h2.89Z"/><path class="cls-2" d="M50.41,22.5a3,3,0,0,1-.26-.86,3,3,0,0,1-2.4,1,3.36,3.36,0,0,1-2.31-.81,2.58,2.58,0,0,1-.92-2,2.67,2.67,0,0,1,1.12-2.32,5.49,5.49,0,0,1,3.24-.82h1.17v-.55a1.53,1.53,0,0,0-.34-1.05,1.32,1.32,0,0,0-1.07-.4,1.51,1.51,0,0,0-1,.31,1,1,0,0,0-.37.84H44.73a2.56,2.56,0,0,1,.51-1.53,3.46,3.46,0,0,1,1.44-1.1,5.19,5.19,0,0,1,2.09-.4,4.16,4.16,0,0,1,2.79.88,3.1,3.1,0,0,1,1,2.49V20.3A4.57,4.57,0,0,0,53,22.35v.15Zm-2.1-1.77a2.12,2.12,0,0,0,1-.25,1.65,1.65,0,0,0,.71-.67V18.17H49.1c-1.27,0-2,.44-2,1.32v.15a1,1,0,0,0,.33.78A1.3,1.3,0,0,0,48.31,20.73Z"/><path class="cls-2" d="M59.89,15.37A6.33,6.33,0,0,0,59,15.3a1.86,1.86,0,0,0-1.89,1V22.5H54.55V13H57L57,14.12a2.35,2.35,0,0,1,2.12-1.31,2.56,2.56,0,0,1,.79.12Z"/><path class="cls-2" d="M63.45,13l.08,1.1a3.32,3.32,0,0,1,2.73-1.28,2.76,2.76,0,0,1,2.25.89,4.08,4.08,0,0,1,.76,2.65V22.5H66.73V16.42a1.68,1.68,0,0,0-.35-1.18,1.61,1.61,0,0,0-1.17-.36,1.74,1.74,0,0,0-1.61.91V22.5H61.06V13Z"/><path class="cls-2" d="M16.36,4a12,12,0,1,0,12,12A12,12,0,0,0,16.36,4Zm.77,4.11a1,1,0,0,1,.52.15c.13.09.29.19.76,1.16a.84.84,0,0,1,.55,0,.71.71,0,0,1,.46.37,6.4,6.4,0,0,1,.34,3.61A6.54,6.54,0,0,1,18.63,16a5.08,5.08,0,0,1,1.11,1.83,5,5,0,0,1,.28,2,4.46,4.46,0,0,0,.6-.33,5.16,5.16,0,0,1,2.55-.93,1.27,1.27,0,0,1,1.35,1.11A1.22,1.22,0,0,1,23.58,21a4.9,4.9,0,0,0-1.82.84,12.91,12.91,0,0,1-3,1.39,1.62,1.62,0,0,1-.71.34,28.3,28.3,0,0,1-3.46.32h-.05a1.9,1.9,0,0,1-1.45-.49A2.4,2.4,0,0,1,11,23.26a1.06,1.06,0,0,1-.58-1.15.9.9,0,0,1-.15-.19,3.15,3.15,0,0,1-.46-2,3.1,3.1,0,0,1,.88-1.71A5.66,5.66,0,0,1,11.06,16a5.24,5.24,0,0,1,1.32-1.73,2.61,2.61,0,0,1-.33-2.21c.23-.6.41-.94.82-1.08h0a1.64,1.64,0,0,0,.48-.26,3.4,3.4,0,0,1,2.3-1.1l.12-.29a2,2,0,0,1,1-1.17.88.88,0,0,1,.33-.06Zm0,.69c-.51,0-1,1.52-1,1.52a2.71,2.71,0,0,0-2.26.87,1.78,1.78,0,0,1-.75.44c-.08,0-.17,0-.41.68-.38,1,.62,2.09.62,2.09a5.38,5.38,0,0,0-1.63,1.88,4.83,4.83,0,0,0-.33,2.26,2.72,2.72,0,0,0-.9,1.49,2.5,2.5,0,0,0,.34,1.51c.23.35.51.18.51.18s-.56.65,0,.93a1.54,1.54,0,0,0,1.71,0c.31-.31.37-1,.49-1.28,0-.06.12.11.21.2a3.14,3.14,0,0,0,.26.2.8.8,0,0,0-.44,1.06c.1.25.47.4,1.06.4a32.9,32.9,0,0,0,3.32-.3.8.8,0,0,0,.5-.28,12.08,12.08,0,0,0,3-1.36,5.4,5.4,0,0,1,2-.93.56.56,0,0,0-.24-1.09,4.3,4.3,0,0,0-2.19.83,3.35,3.35,0,0,1-1.75.67v0A5.84,5.84,0,0,0,19.09,18a5.75,5.75,0,0,0-1.34-2,7,7,0,0,0,1.33-2.78,5.77,5.77,0,0,0-.27-3.15c-.07-.14-.73.24-.73.24a8.73,8.73,0,0,0-.79-1.48.27.27,0,0,0-.15,0Z"/></g></g></svg>